<svg xmlns="http://www.w3.org/2000/svg" version="1.1" xmlns:xlink="http://www.w3.org/1999/xlink" xmlns:svgjs="http://svgjs.dev/svgjs" viewBox="0 0 800 800"><defs><filter id="bbburst-blur-1" x="-100%" y="-100%" width="400%" height="400%"><feGaussianBlur in="SourceGraphic" stdDeviation="1"></feGaussianBlur></filter><filter id="bbburst-blur-2" x="-100%" y="-100%" width="400%" height="400%"><feGaussianBlur in="SourceGraphic" stdDeviation="2"></feGaussianBlur></filter><filter id="bbburst-blur-3" x="-100%" y="-100%" width="400%" height="400%"><feGaussianBlur in="SourceGraphic" stdDeviation="4"></feGaussianBlur></filter><filter id="bbburst-blur-4" x="-100%" y="-100%" width="400%" height="400%"><feGaussianBlur in="SourceGraphic" stdDeviation="12"></feGaussianBlur></filter><symbol id="bbburst-shape-1" viewBox="0 0 194 167"><path d="m97 0 96.129 166.5H.871L97 0Z"></path></symbol><symbol id="bbburst-shape-4" viewBox="0 0 149 143"><path d="M71.647 2.781c.898-2.764 4.808-2.764 5.706 0l15.445 47.534a3 3 0 0 0 2.853 2.073h49.98c2.906 0 4.115 3.719 1.764 5.427L106.96 87.193a2.999 2.999 0 0 0-1.09 3.354l15.445 47.534c.898 2.764-2.266 5.062-4.617 3.354l-40.435-29.378a3 3 0 0 0-3.526 0l-40.435 29.378c-2.351 1.708-5.515-.59-4.617-3.354L43.13 90.547a3 3 0 0 0-1.09-3.354L1.605 57.815c-2.35-1.708-1.142-5.427 1.764-5.427h49.98a3 3 0 0 0 2.853-2.073L71.647 2.781Z"></path></symbol><symbol id="bbburst-shape-6" viewBox="0 0 133 116"><path d="M59.7487 10.2513c-13.6683-13.66839-35.8291-13.66839-49.4974 0-13.66839 13.6683-13.66839 35.8291 0 49.4974l49.4974-49.4974ZM66.5 66.5 41.7513 91.2487 66.5 115.997l24.7487-24.7483L66.5 66.5Zm56.249-6.7513c13.668-13.6683 13.668-35.8291 0-49.4974-13.669-13.66839-35.8294-13.66839-49.4977 0l49.4977 49.4974Zm-112.4977 0 31.5 31.5 49.4974-49.4974-31.5-31.5-49.4974 49.4974Zm80.9974 31.5 31.5003-31.5-49.4977-49.4974-31.5 31.5 49.4974 49.4974Z"></path></symbol><symbol id="bbburst-shape-8" viewBox="0 0 87 168"><path d="m12 12 31.2546 18.0749c16.4102 9.4902 20.014 31.6325 7.4603 45.8369L36.3296 92.1884c-12.5684 14.2206-8.9394 36.3916 7.5068 45.8636L75 156" stroke-width="14" stroke-linecap="round" stroke-linejoin="round"></path></symbol><symbol id="bbburst-shape-10" viewBox="0 0 145 145"><circle cx="72.5" cy="72.5" r="61.5" fill="none" stroke-width="22"></circle></symbol></defs><use xlink:href="#bbburst-shape-10" width="25.566506978379163" opacity="0.7282843761272315" transform="matrix(0.9981980127591802,-0.06000606072409313,0.06000606072409313,0.9981980127591802,377.09171308909765,-119.99672603492422)" fill="none" stroke="#ffa6d5" filter="url(#bbburst-blur-1)"></use><use xlink:href="#bbburst-shape-10" width="12.265281786922975" opacity="0.8073553855692966" transform="matrix(0.9197576357464141,-0.39248680421915666,0.39248680421915666,0.9197576357464141,150.77060669814364,38.58163371830699)" fill="none" stroke="#2c2891"></use><use xlink:href="#bbburst-shape-10" width="13.76758721260699" opacity="0.8816368713364313" transform="matrix(0.8794267434582761,0.4760342455016987,-0.4760342455016987,0.8794267434582761,609.2585608175985,92.03790988742196)" fill="none" stroke="#ffa6d5"></use><use xlink:href="#bbburst-shape-8" width="45.41199050089209" opacity="0.05310771177118556" transform="matrix(1.6458600648358825,0.5946802897174448,-0.5946802897174448,1.6458600648358825,358.3778034829626,-622.4730815066774)" fill="none" stroke="#00a19d" filter="url(#bbburst-blur-4)"></use><use xlink:href="#bbburst-shape-4" width="45.29752601649898" opacity="0.2190303638096215" transform="matrix(1.0334985839605886,0.7031220924928032,-0.7031220924928032,1.0334985839605886,721.6451563271356,-374.87243970703616)" fill="#ffbd9b" filter="url(#bbburst-blur-3)"></use><use xlink:href="#bbburst-shape-6" width="26.95941440468403" opacity="0.5737361130982068" transform="matrix(0.9974246528840077,-0.07172211527288294,0.07172211527288294,0.9974246528840077,340.358885387587,-189.02089622433022)" fill="#2c2891" filter="url(#bbburst-blur-1)"></use><use xlink:href="#bbburst-shape-4" width="15.727434930943438" opacity="0.6995230395412801" transform="matrix(0.9633964044624543,0.2680808979931527,-0.2680808979931527,0.9633964044624543,456.8112078971592,140.7953109638184)" fill="#2c2891" filter="url(#bbburst-blur-1)"></use><use xlink:href="#bbburst-shape-4" width="24.705820273466543" opacity="0.6799131941348785" transform="matrix(0.8236213786153342,0.5671400397501275,-0.5671400397501275,0.8236213786153342,476.2047358006094,95.4545035486687)" fill="#ffa6d5" filter="url(#bbburst-blur-1)"></use><use xlink:href="#bbburst-shape-4" width="18.032196273578286" opacity="0.6505350890310517" transform="matrix(0.9830743234572673,-0.18320719024928106,0.18320719024928106,0.9830743234572673,167.90170149550957,-38.93255951556512)" fill="#ff5c58" filter="url(#bbburst-blur-1)"></use><use xlink:href="#bbburst-shape-4" width="29.640304796868335" opacity="0.577956109355798" transform="matrix(0.8571056250576765,-0.5151407065011362,0.5151407065011362,0.8571056250576765,192.48010542078612,254.4030323209247)" fill="#ff5c58" filter="url(#bbburst-blur-1)"></use><use xlink:href="#bbburst-shape-10" width="54.57066167386367" opacity="-0.07135899072819063" transform="matrix(1.3721917294072035,1.0860892494387688,-1.0860892494387688,1.3721917294072035,1140.7170792458505,159.5520723687922)" fill="none" stroke="#ffbd9b" filter="url(#bbburst-blur-4)"></use><use xlink:href="#bbburst-shape-10" width="36.106801926636784" opacity="0.24233986705542743" transform="matrix(1.0811189591910702,-0.6274406713607407,0.6274406713607407,1.0811189591910702,272.3668955785278,288.45314349617917)" fill="none" stroke="#00a19d" filter="url(#bbburst-blur-3)"></use><use xlink:href="#bbburst-shape-4" width="38.8457432534181" opacity="0.43178818931356455" transform="matrix(0.8572041643918875,-0.5149767184535683,0.5149767184535683,0.8572041643918875,241.65887694525458,314.63438659885094)" fill="#ffa6d5" filter="url(#bbburst-blur-2)"></use><use xlink:href="#bbburst-shape-1" width="44.07074319748594" opacity="0.16456004444231398" transform="matrix(1.1510161399873773,0.4875057389288443,-0.4875057389288443,1.1510161399873773,437.9517188520174,-423.2234300832714)" fill="#2c2891" filter="url(#bbburst-blur-3)"></use><use xlink:href="#bbburst-shape-4" width="15.00573114967009" opacity="0.9227818121010944" transform="matrix(0.9862864888788482,0.1650423032286985,-0.1650423032286985,0.9862864888788482,493.23122261940057,7.282479850250297)" fill="#ffa6d5"></use><use xlink:href="#bbburst-shape-4" width="33.95537690314645" opacity="0.191982711208177" transform="matrix(0.960873028046983,0.799514242507175,-0.799514242507175,0.960873028046983,673.6260644674056,-360.27470299448163)" fill="#2c2891" filter="url(#bbburst-blur-3)"></use><use xlink:href="#bbburst-shape-6" width="23.438816234903378" opacity="0.5127999714415701" transform="matrix(0.7881650654217789,-0.6154639141726207,0.6154639141726207,0.7881650654217789,-70.05111134872502,47.218690883000534)" fill="#ffa6d5" filter="url(#bbburst-blur-2)"></use><use xlink:href="#bbburst-shape-4" width="37.85957695065624" opacity="-0.0748419754170715" transform="matrix(1.7434124916884923,0.1516999796457546,-0.1516999796457546,1.7434124916884923,766.2946956864397,-645.5462202184032)" fill="#ff5c58" filter="url(#bbburst-blur-4)"></use><use xlink:href="#bbburst-shape-4" width="18.79818396947752" opacity="0.9327574294587255" transform="matrix(0.9987083681753025,0.05080940204946631,-0.05080940204946631,0.9987083681753025,415.2159747051842,-29.898784480756035)" fill="#ff5c58"></use><use xlink:href="#bbburst-shape-6" width="31.53290848150936" opacity="0.6014333105025934" transform="matrix(0.9480352474865625,-0.318165317913647,0.318165317913647,0.9480352474865625,428.4132069148564,81.07336292815512)" fill="#ff5c58" filter="url(#bbburst-blur-1)"></use><use xlink:href="#bbburst-shape-4" width="36.03890280527708" opacity="0.08836802281212519" transform="matrix(1.7000567192124068,-0.4150989658632605,0.4150989658632605,1.7000567192124068,7.648007818117492,88.06373303661735)" fill="#ff5c58" filter="url(#bbburst-blur-4)"></use><use xlink:href="#bbburst-shape-6" width="24.66067340769524" opacity="0.6106008923872187" transform="matrix(0.9782842262987883,-0.20726787637012423,0.20726787637012423,0.9782842262987883,443.64863772250277,-95.95088710337188)" fill="#ff5c58" filter="url(#bbburst-blur-1)"></use><use xlink:href="#bbburst-shape-10" width="23.966370838412967" opacity="0.6263448703433013" transform="matrix(0.8495762805413258,0.5274657747584828,-0.5274657747584828,0.8495762805413258,729.2366639336368,162.37597053301744)" fill="none" stroke="#ffa6d5" filter="url(#bbburst-blur-1)"></use><use xlink:href="#bbburst-shape-4" width="40.37308263103705" opacity="0.34685534046540245" transform="matrix(0.7586479150470279,-0.6515008372940112,0.6515008372940112,0.7586479150470279,-104.97744960290441,-74.4141644991754)" fill="#00a19d" filter="url(#bbburst-blur-2)"></use><use xlink:href="#bbburst-shape-6" width="37.13087763034882" opacity="0.359037748661469" transform="matrix(0.9479449212862371,-0.31843433578624947,0.31843433578624947,0.9479449212862371,211.73838674460345,-258.43173469800945)" fill="#ffa6d5" filter="url(#bbburst-blur-2)"></use><use xlink:href="#bbburst-shape-4" width="15.07149504631352" opacity="0.8746387088614065" transform="matrix(0.7749133821925109,-0.6320674411002069,0.6320674411002069,0.7749133821925109,187.6143218273433,62.539793871412655)" fill="#ffbd9b"></use><use xlink:href="#bbburst-shape-4" width="11.901516418467448" opacity="0.8687530810716729" transform="matrix(0.940179290613996,0.34068005738605156,-0.34068005738605156,0.940179290613996,514.4747309821013,78.7073762186904)" fill="#ffa6d5"></use><use xlink:href="#bbburst-shape-1" width="25.288149008174745" opacity="0.40284792204547615" transform="matrix(0.9852793409135638,0.1709520996330063,-0.1709520996330063,0.9852793409135638,207.8987252672835,-99.66436076489873)" fill="#00a19d" filter="url(#bbburst-blur-2)"></use><use xlink:href="#bbburst-shape-10" width="32.145900560123934" opacity="0.2646777030900336" transform="matrix(1.1328797353747702,-0.5282835461919961,0.5282835461919961,1.1328797353747702,472.3393630872829,90.87942243891598)" fill="none" stroke="#00a19d" filter="url(#bbburst-blur-3)"></use><use xlink:href="#bbburst-shape-10" width="33.64690122426399" opacity="0.232325669386243" transform="matrix(1.223013428427039,0.2583372870631334,-0.2583372870631334,1.223013428427039,157.92052911003833,-211.10002947909078)" fill="none" stroke="#ffbd9b" filter="url(#bbburst-blur-3)"></use><use xlink:href="#bbburst-shape-6" width="10.606063191099881" opacity="0.7892655451713597" transform="matrix(0.9014376608716356,-0.4329089321812084,0.4329089321812084,0.9014376608716356,134.53532257799105,78.23018281991892)" fill="#ffa6d5"></use><use xlink:href="#bbburst-shape-8" width="17.53715960753204" opacity="0.7975299277350336" transform="matrix(0.9544001686257059,-0.2985302633356024,0.2985302633356024,0.9544001686257059,298.59929255193686,108.06656367111333)" fill="none" stroke="#ffa6d5"></use><use xlink:href="#bbburst-shape-1" width="19.584478778864405" opacity="0.7810686415803978" transform="matrix(0.8388942416245337,0.5442944528186912,-0.5442944528186912,0.8388942416245337,522.2673867528791,13.325981201079742)" fill="#00a19d"></use><use xlink:href="#bbburst-shape-6" width="26.92710023826536" opacity="0.4868756677160998" transform="matrix(0.7710231621837902,0.6368071006012015,-0.6368071006012015,0.7710231621837902,498.94317043141837,-96.36152052975294)" fill="#ffbd9b" filter="url(#bbburst-blur-2)"></use><use xlink:href="#bbburst-shape-4" width="31.31959591579" opacity="0.4318938392832937" transform="matrix(0.8498347685788259,0.5270492065401232,-0.5270492065401232,0.8498347685788259,563.5963949071778,305.2268988074555)" fill="#00a19d" filter="url(#bbburst-blur-2)"></use><use xlink:href="#bbburst-shape-8" width="18.777782214265848" opacity="0.8016644298875839" transform="matrix(0.9196432335106026,0.3927547874414305,-0.3927547874414305,0.9196432335106026,636.8685699932881,16.167415985240666)" fill="none" stroke="#ffa6d5"></use><use xlink:href="#bbburst-shape-6" width="24.026909795105052" opacity="0.7639682285900934" transform="matrix(0.9988662116545244,-0.04760557966183122,0.04760557966183122,0.9988662116545244,444.4724316594652,75.71867017995908)" fill="#ffa6d5" filter="url(#bbburst-blur-1)"></use><use xlink:href="#bbburst-shape-4" width="41.12722690196339" opacity="-0.08139653228334454" transform="matrix(1.7098956370716676,0.37250088633891326,-0.37250088633891326,1.7098956370716676,162.27309296745983,-628.0342575260099)" fill="#ffa6d5" filter="url(#bbburst-blur-4)"></use><use xlink:href="#bbburst-shape-4" width="24.831697975668007" opacity="0.5133992940143972" transform="matrix(0.7114419022080729,0.7027449180055013,-0.7027449180055013,0.7114419022080729,525.8297131732795,269.53117141960877)" fill="#2c2891" filter="url(#bbburst-blur-2)"></use><use xlink:href="#bbburst-shape-1" width="25.088321316913966" opacity="0.4534560052604447" transform="matrix(0.8693739031180951,-0.4941548508081337,0.4941548508081337,0.8693739031180951,-48.81565676428943,111.03192029843643)" fill="#ffa6d5" filter="url(#bbburst-blur-2)"></use><use xlink:href="#bbburst-shape-8" width="14.569894758262057" opacity="0.8246738258665345" transform="matrix(0.9886535928048878,0.1502134262773705,-0.1502134262773705,0.9886535928048878,487.0344780068964,-67.67804857043524)" fill="none" stroke="#00a19d"></use><use xlink:href="#bbburst-shape-10" width="18.003235805166465" opacity="0.7824135571152518" transform="matrix(0.9938012238877362,0.11117161238030941,-0.11117161238030941,0.9938012238877362,376.45847287567864,79.5718848042062)" fill="none" stroke="#00a19d"></use><use xlink:href="#bbburst-shape-1" width="31.993219702605103" opacity="0.18295477835817064" transform="matrix(1.2059884910267518,0.32877311251228936,-0.32877311251228936,1.2059884910267518,875.2035691101481,-29.185913492767213)" fill="#2c2891" filter="url(#bbburst-blur-3)"></use><use xlink:href="#bbburst-shape-4" width="10.60255508885296" opacity="0.9659535149392543" transform="matrix(0.9673354369537812,0.2534998075214991,-0.2534998075214991,0.9673354369537812,500.6289129822392,26.41882213938794)" fill="#ff5c58"></use><use xlink:href="#bbburst-shape-6" width="25.546944001079815" opacity="0.5527273209175986" transform="matrix(0.9759591453492334,0.21795354231852665,-0.21795354231852665,0.9759591453492334,291.45301711261357,90.05370939416844)" fill="#2c2891" filter="url(#bbburst-blur-2)"></use><use xlink:href="#bbburst-shape-4" width="25.676851301143678" opacity="0.4972550747075355" transform="matrix(0.973786739059183,-0.22746293507400864,0.22746293507400864,0.973786739059183,504.634460612763,-75.28465493808983)" fill="#2c2891" filter="url(#bbburst-blur-2)"></use><use xlink:href="#bbburst-shape-1" width="19.246293286030234" opacity="0.6313809761723662" transform="matrix(0.9709582907026031,0.2392488196749973,-0.2392488196749973,0.9709582907026031,350.4008410863936,104.38339573926373)" fill="#ffbd9b" filter="url(#bbburst-blur-1)"></use><use xlink:href="#bbburst-shape-4" width="16.72600334122677" opacity="0.7925527098425647" transform="matrix(0.7267033150896631,0.6869514479478837,-0.6869514479478837,0.7267033150896631,650.7106550195049,195.187701718661)" fill="#ffbd9b"></use><use xlink:href="#bbburst-shape-1" width="28.264610115066063" opacity="0.4493501425247285" transform="matrix(0.8462922141567465,-0.532718958042298,0.532718958042298,0.8462922141567465,68.5392962871322,292.81294770703545)" fill="#00a19d" filter="url(#bbburst-blur-2)"></use><use xlink:href="#bbburst-shape-6" width="33.15217422566005" opacity="0.4221442604434069" transform="matrix(0.9222966473116749,-0.3864827219393436,0.3864827219393436,0.9222966473116749,14.30181335632821,182.5439039251533)" fill="#ffa6d5" filter="url(#bbburst-blur-2)"></use><use xlink:href="#bbburst-shape-4" width="25.15628426865807" opacity="0.7024335761582541" transform="matrix(0.9172895265475742,-0.39822094933105556,0.39822094933105556,0.9172895265475742,301.7961828229413,-74.39297112192077)" fill="#ffa6d5" filter="url(#bbburst-blur-1)"></use><use xlink:href="#bbburst-shape-8" width="32.95381970663958" opacity="0.15448296439137155" transform="matrix(1.233339277109888,-0.20340655726416132,0.20340655726416132,1.233339277109888,11.50693128308555,-339.99970145890484)" fill="none" stroke="#2c2891" filter="url(#bbburst-blur-3)"></use><use xlink:href="#bbburst-shape-10" width="43.675268562544375" opacity="0.3345456049171047" transform="matrix(0.9220301250720303,-0.38711813243460474,0.38711813243460474,0.9220301250720303,524.4146530868285,33.76860787352615)" fill="none" stroke="#00a19d" filter="url(#bbburst-blur-2)"></use><use xlink:href="#bbburst-shape-10" width="32.52492698059365" opacity="0.12466209018156782" transform="matrix(1.0252833159179406,-0.7150483354992949,0.7150483354992949,1.0252833159179406,-162.8399335835072,297.2893172344464)" fill="none" stroke="#2c2891" filter="url(#bbburst-blur-3)"></use><use xlink:href="#bbburst-shape-4" width="44.61009939899078" opacity="0.12656174710112944" transform="matrix(1.247409736929552,-0.08042977193393906,0.08042977193393906,1.247409736929552,-16.482872889129567,68.41177511779472)" fill="#00a19d" filter="url(#bbburst-blur-3)"></use><use xlink:href="#bbburst-shape-6" width="12.037856547996727" opacity="0.9452206101781371" transform="matrix(0.9785631244635642,0.20594710835577912,-0.20594710835577912,0.9785631244635642,452.5397512903569,1.4960435750977013)" fill="#2c2891"></use><use xlink:href="#bbburst-shape-1" width="34.04677408268054" opacity="0.3367719249026676" transform="matrix(0.9848849063560088,-0.1732100494547466,0.1732100494547466,0.9848849063560088,450.8796467875077,-256.15317702542404)" fill="#ff5c58" filter="url(#bbburst-blur-2)"></use><use xlink:href="#bbburst-shape-6" width="40.12359233386679" opacity="0.2751217631057673" transform="matrix(1.2499775908800823,-0.007484804448064165,0.007484804448064165,1.2499775908800823,255.93128121394994,205.03305397123245)" fill="#ffbd9b" filter="url(#bbburst-blur-3)"></use><use xlink:href="#bbburst-shape-10" width="32.603772874779665" opacity="0.1856886637663887" transform="matrix(1.06259769914758,0.6583206891525352,-0.6583206891525352,1.06259769914758,285.0244604190039,27.242834051213492)" fill="none" stroke="#ff5c58" filter="url(#bbburst-blur-3)"></use><use xlink:href="#bbburst-shape-8" width="28.61512323383941" opacity="0.11782249365530684" transform="matrix(1.1868154686831005,0.39238889292959406,-0.39238889292959406,1.1868154686831005,703.0799573625624,-442.26549753043025)" fill="none" stroke="#ffa6d5" filter="url(#bbburst-blur-3)"></use><use xlink:href="#bbburst-shape-10" width="38.34615583344006" opacity="0.39360857110545233" transform="matrix(0.960960107530832,0.2766869562056219,-0.2766869562056219,0.960960107530832,692.2853108622808,-175.28894554277286)" fill="none" stroke="#ffa6d5" filter="url(#bbburst-blur-2)"></use><use xlink:href="#bbburst-shape-4" width="19.26077859653664" opacity="0.844675677590237" transform="matrix(0.7600402085265597,0.6498760508150024,-0.6498760508150024,0.7600402085265597,716.3952427900051,118.34113741149173)" fill="#ff5c58"></use><use xlink:href="#bbburst-shape-10" width="30.29786320364435" opacity="0.17253030140971393" transform="matrix(1.164196570555656,-0.455133326736737,0.455133326736737,1.164196570555656,562.7625176993511,-144.11487541654554)" fill="none" stroke="#ffbd9b" filter="url(#bbburst-blur-3)"></use><use xlink:href="#bbburst-shape-10" width="31.910524639647498" opacity="0.1762561254762346" transform="matrix(1.2407169309939727,-0.15205754550464648,0.15205754550464648,1.2407169309939727,258.21381801369955,271.7426132408761)" fill="none" stroke="#2c2891" filter="url(#bbburst-blur-3)"></use><use xlink:href="#bbburst-shape-4" width="35.552073426472525" opacity="0.5208075477098444" transform="matrix(0.9209965978761432,0.38957061837434526,-0.38957061837434526,0.9209965978761432,658.0734103897662,-155.3667118861722)" fill="#ffbd9b" filter="url(#bbburst-blur-2)"></use><use xlink:href="#bbburst-shape-4" width="22.428403852798652" opacity="0.583198467370916" transform="matrix(0.7275899183030216,-0.6860123255334428,0.6860123255334428,0.7275899183030216,55.10882658017238,293.5691795558277)" fill="#00a19d" filter="url(#bbburst-blur-1)"></use><use xlink:href="#bbburst-shape-4" width="38.34085718020657" opacity="0.20485748570698425" transform="matrix(0.9429610213056226,-0.8205635333709737,0.8205635333709737,0.9429610213056226,328.3514399622072,-190.79376465873472)" fill="#ffa6d5" filter="url(#bbburst-blur-3)"></use><use xlink:href="#bbburst-shape-6" width="18.355574507858066" opacity="0.7296116528172979" transform="matrix(0.9385174519687889,-0.3452317951029597,0.3452317951029597,0.9385174519687889,152.16635649207254,95.4224627019762)" fill="#ffa6d5" filter="url(#bbburst-blur-1)"></use><use xlink:href="#bbburst-shape-4" width="23.435185186676748" opacity="0.7152827625313138" transform="matrix(0.952419440768751,0.3047904343081321,-0.3047904343081321,0.952419440768751,476.1051491617925,-107.8688649693612)" fill="#00a19d" filter="url(#bbburst-blur-1)"></use><use xlink:href="#bbburst-shape-10" width="28.509129314263408" opacity="0.438687002614077" transform="matrix(0.9383730349388004,0.34562414166221794,-0.34562414166221794,0.9383730349388004,764.4704101788541,99.69588925864201)" fill="none" stroke="#ffa6d5" filter="url(#bbburst-blur-2)"></use><use xlink:href="#bbburst-shape-4" width="23.038157984739044" opacity="0.6583281080987565" transform="matrix(0.9193858588086485,-0.3933568896341894,0.3933568896341894,0.9193858588086485,383.2070807906888,8.531881359572083)" fill="#ffa6d5" filter="url(#bbburst-blur-1)"></use><use xlink:href="#bbburst-shape-10" width="37.07297768071151" opacity="0.32065336714055626" transform="matrix(1.2295887501894478,0.22497001001811728,-0.22497001001811728,1.2295887501894478,282.15567334411367,147.33839181704673)" fill="none" stroke="#00a19d" filter="url(#bbburst-blur-3)"></use><use xlink:href="#bbburst-shape-4" width="16.461095181295978" opacity="0.8717766174778603" transform="matrix(0.8630903460155177,0.5050495565930277,-0.5050495565930277,0.8630903460155177,538.1091282070925,40.46234539297768)" fill="#ffa6d5"></use><use xlink:href="#bbburst-shape-1" width="13.317752914931843" opacity="0.8626677068043122" transform="matrix(0.7448419247492478,-0.6672409663201413,0.6672409663201413,0.7448419247492478,76.16233964046904,139.9245035564408)" fill="#ffbd9b"></use><use xlink:href="#bbburst-shape-8" width="18.389679643597756" opacity="0.7534195364132976" transform="matrix(0.910875295007739,0.4126817138480508,-0.4126817138480508,0.910875295007739,649.8438196542833,-28.444914589479822)" fill="none" stroke="#2c2891" filter="url(#bbburst-blur-1)"></use><use xlink:href="#bbburst-shape-1" width="26.82709099368788" opacity="0.4576604028045268" transform="matrix(0.9585320569510564,0.28498472905960576,-0.28498472905960576,0.9585320569510564,413.1856578749821,-214.86029992743482)" fill="#00a19d" filter="url(#bbburst-blur-2)"></use><use xlink:href="#bbburst-shape-4" width="26.997324246782185" opacity="0.3157167014036917" transform="matrix(1.234024147648714,0.19920944510706642,-0.19920944510706642,1.234024147648714,172.24723420420622,5.071755634832812)" fill="#00a19d" filter="url(#bbburst-blur-3)"></use><use xlink:href="#bbburst-shape-6" width="38.848553403440484" opacity="0.43767180041521647" transform="matrix(0.8032191279902162,0.5956836680912417,-0.5956836680912417,0.8032191279902162,820.3817339535891,225.07768668828214)" fill="#ff5c58" filter="url(#bbburst-blur-2)"></use><use xlink:href="#bbburst-shape-4" width="24.424766402946776" opacity="0.16440903146621177" transform="matrix(1.006346929801776,-0.7414619726449491,0.7414619726449491,1.006346929801776,173.5025890003438,373.42368627300266)" fill="#2c2891" filter="url(#bbburst-blur-3)"></use><use xlink:href="#bbburst-shape-6" width="37.871558633562174" opacity="0.019120903863832583" transform="matrix(1.65206669571893,-0.5772136804480092,0.5772136804480092,1.65206669571893,-216.9426214252826,12.716566484210489)" fill="#2c2891" filter="url(#bbburst-blur-4)"></use><use xlink:href="#bbburst-shape-10" width="14.522558240669483" opacity="0.874430871525419" transform="matrix(0.7743623831574892,0.6327423642768467,-0.6327423642768467,0.7743623831574892,609.937177989914,43.424012054807065)" fill="none" stroke="#2c2891"></use><use xlink:href="#bbburst-shape-8" width="26.82481298373312" opacity="0.6193570180765597" transform="matrix(0.8454129712859517,-0.5341131977225975,0.5341131977225975,0.8454129712859517,93.48044609408666,-81.64022304514768)" fill="none" stroke="#2c2891" filter="url(#bbburst-blur-1)"></use><use xlink:href="#bbburst-shape-6" width="29.82103899594242" opacity="0.2917273177087736" transform="matrix(1.0163210212765075,-0.7277304320361194,0.7277304320361194,1.0163210212765075,107.48890032368911,322.7493933902886)" fill="#2c2891" filter="url(#bbburst-blur-3)"></use><use xlink:href="#bbburst-shape-4" width="39.83019678527592" opacity="0.25186495873939174" transform="matrix(1.2267504002767915,0.23996552965109771,-0.23996552965109771,1.2267504002767915,201.17300829546846,105.1608450681025)" fill="#ffa6d5" filter="url(#bbburst-blur-3)"></use><use xlink:href="#bbburst-shape-10" width="27.46599562846328" opacity="0.06290471711056145" transform="matrix(1.6105173451337949,-0.68464142514399,0.68464142514399,1.6105173451337949,463.76996923932455,-454.8258937862354)" fill="none" stroke="#ffa6d5" filter="url(#bbburst-blur-4)"></use><use xlink:href="#bbburst-shape-10" width="31.1840073058447" opacity="0.36124920202207655" transform="matrix(0.7685916714452824,-0.6397396678219563,0.6397396678219563,0.7685916714452824,-155.1258237438394,92.03981038828601)" fill="none" stroke="#ff5c58" filter="url(#bbburst-blur-2)"></use><use xlink:href="#bbburst-shape-10" width="19.55453294885372" opacity="0.7318690016500381" transform="matrix(0.7631061341770257,0.646273183709022,-0.646273183709022,0.7631061341770257,767.40004137755,120.38919336643391)" fill="none" stroke="#2c2891" filter="url(#bbburst-blur-1)"></use><use xlink:href="#bbburst-shape-10" width="19.34513099822687" opacity="0.7692329868378323" transform="matrix(0.9190106369718126,-0.3942327347299602,0.3942327347299602,0.9190106369718126,171.19095567434832,-46.92732257703318)" fill="none" stroke="#ff5c58" filter="url(#bbburst-blur-1)"></use><use xlink:href="#bbburst-shape-10" width="26.249655345330396" opacity="0.5749075952798859" transform="matrix(0.7380985389918618,-0.6746929277368179,0.6746929277368179,0.7380985389918618,-70.58219020635053,123.85063763360836)" fill="none" stroke="#00a19d" filter="url(#bbburst-blur-1)"></use><use xlink:href="#bbburst-shape-4" width="33.38005320525514" opacity="0.5090839330926538" transform="matrix(0.890300964976183,0.455372585651,-0.455372585651,0.890300964976183,788.0609011716289,28.8061477290035)" fill="#ffa6d5" filter="url(#bbburst-blur-2)"></use><use xlink:href="#bbburst-shape-8" width="21.36431000988373" opacity="0.6801953529474649" transform="matrix(0.8539607755992586,-0.5203373845284545,0.5203373845284545,0.8539607755992586,241.15278663924957,195.49958408557478)" fill="none" stroke="#ffa6d5" filter="url(#bbburst-blur-1)"></use><use xlink:href="#bbburst-shape-4" width="41.11566731267013" opacity="0.206211504908956" transform="matrix(1.1298360459009102,0.5347621054104303,-0.5347621054104303,1.1298360459009102,848.5732136883827,184.24758561855964)" fill="#ff5c58" filter="url(#bbburst-blur-3)"></use><use xlink:href="#bbburst-shape-6" width="39.13010770829661" opacity="0.313832947875917" transform="matrix(1.1098835626107695,0.5750291100861122,-0.5750291100861122,1.1098835626107695,892.2021847890951,-176.61039745969322)" fill="#ff5c58" filter="url(#bbburst-blur-3)"></use><use xlink:href="#bbburst-shape-10" width="36.69120004051844" opacity="0.18615138303209355" transform="matrix(1.2499996972158036,-0.0008700347116669257,0.0008700347116669257,1.2499996972158036,12.634077012763704,-139.57224007615304)" fill="none" stroke="#2c2891" filter="url(#bbburst-blur-3)"></use><use xlink:href="#bbburst-shape-6" width="29.417707140175768" opacity="0.37885526546811266" transform="matrix(0.9366524160178925,0.3502602626160221,-0.3502602626160221,0.9366524160178925,684.805623473393,250.43338760876242)" fill="#2c2891" filter="url(#bbburst-blur-2)"></use><use xlink:href="#bbburst-shape-8" width="25.60323420447911" opacity="0.5518489408096925" transform="matrix(0.9787007535235668,-0.20529207255128612,0.20529207255128612,0.9787007535235668,405.5307980725877,186.1752749597382)" fill="none" stroke="#ffa6d5" filter="url(#bbburst-blur-2)"></use><use xlink:href="#bbburst-shape-8" width="27.157578773868693" opacity="0.6031963726717424" transform="matrix(0.9426236139881711,-0.33385733832264275,0.33385733832264275,0.9426236139881711,304.24224857624847,-143.76274633109284)" fill="none" stroke="#2c2891" filter="url(#bbburst-blur-1)"></use><use xlink:href="#bbburst-shape-10" width="20.613201985425356" opacity="0.833540996771751" transform="matrix(0.9989713430062311,0.04534595739784181,-0.04534595739784181,0.9989713430062311,395.68200863643517,-73.96879900239259)" fill="none" stroke="#ffa6d5"></use><use xlink:href="#bbburst-shape-6" width="24.160118238315285" opacity="0.6561461061851146" transform="matrix(0.9576306416447959,0.2879992260110719,-0.2879992260110719,0.9576306416447959,409.87480639276157,136.5640173635407)" fill="#2c2891" filter="url(#bbburst-blur-1)"></use><use xlink:href="#bbburst-shape-1" width="32.788749201411406" opacity="0.5399717802653046" transform="matrix(0.9842384515424247,0.17684646025682885,-0.17684646025682885,0.9842384515424247,280.7283127008192,-108.91221347371788)" fill="#ffa6d5" filter="url(#bbburst-blur-2)"></use><use xlink:href="#bbburst-shape-10" width="35.85945290672079" opacity="0.11761763850858142" transform="matrix(1.1505170753686849,0.48868237054869096,-0.48868237054869096,1.1505170753686849,810.7026538021876,-388.40130667818903)" fill="none" stroke="#ffa6d5" filter="url(#bbburst-blur-3)"></use><use xlink:href="#bbburst-shape-6" width="18.39964537559688" opacity="0.7309923442224152" transform="matrix(0.9426197073744607,-0.33386836817716986,0.33386836817716986,0.9426197073744607,137.39356204873005,13.341304707929226)" fill="#00a19d" filter="url(#bbburst-blur-1)"></use><use xlink:href="#bbburst-shape-10" width="43.24458150955934" opacity="0.4378917106240411" transform="matrix(0.9570693188178931,-0.2898591364395021,0.2898591364395021,0.9570693188178931,305.81830930978924,-225.9205838063532)" fill="none" stroke="#00a19d" filter="url(#bbburst-blur-2)"></use><use xlink:href="#bbburst-shape-6" width="25.182218575667065" opacity="0.6668617471452505" transform="matrix(0.9967356560993493,-0.08073432888306967,0.08073432888306967,0.9967356560993493,241.5393607033743,-95.47756453495515)" fill="#00a19d" filter="url(#bbburst-blur-1)"></use><use xlink:href="#bbburst-shape-4" width="34.17964875618577" opacity="0.06541406776973813" transform="matrix(1.6437927714973752,0.6003709889501475,-0.6003709889501475,1.6437927714973752,838.8888522587299,86.40963799539418)" fill="#00a19d" filter="url(#bbburst-blur-4)"></use><use xlink:href="#bbburst-shape-8" width="21.594910821817265" opacity="0.7026667940340605" transform="matrix(0.7680057680185097,-0.6404429250841164,0.6404429250841164,0.7680057680185097,140.32956375150502,233.42668678542123)" fill="none" stroke="#00a19d" filter="url(#bbburst-blur-1)"></use><use xlink:href="#bbburst-shape-10" width="34.25215181178365" opacity="0.07703926210922563" transform="matrix(1.7130987993298372,-0.3574807739371032,0.3574807739371032,1.7130987993298372,585.6060609349785,-68.44691607162451)" fill="none" stroke="#2c2891" filter="url(#bbburst-blur-4)"></use><use xlink:href="#bbburst-shape-6" width="44.11296473510164" opacity="0.2920268342437803" transform="matrix(1.0429402773406387,0.6890396054659207,-0.6890396054659207,1.0429402773406387,479.0007254769873,-299.5015155271535)" fill="#ffa6d5" filter="url(#bbburst-blur-3)"></use><use xlink:href="#bbburst-shape-4" width="29.220841919399415" opacity="0.08267709663740452" transform="matrix(1.7290657051821297,0.26987365036813954,-0.26987365036813954,1.7290657051821297,119.8442662977121,-492.3743073287213)" fill="#00a19d" filter="url(#bbburst-blur-4)"></use><use xlink:href="#bbburst-shape-10" width="29.18432438455069" opacity="-0.09406494512157781" transform="matrix(1.6082881097882555,0.6898618382790282,-0.6898618382790282,1.6082881097882555,315.0004244530633,105.08445316572045)" fill="none" stroke="#ff5c58" filter="url(#bbburst-blur-4)"></use><use xlink:href="#bbburst-shape-8" width="12.903812818656856" opacity="0.9228021208501171" transform="matrix(0.8879241276669361,-0.459989938484431,0.459989938484431,0.8879241276669361,187.24150509144764,73.80294476336354)" fill="none" stroke="#2c2891"></use></svg>