<svg xmlns="http://www.w3.org/2000/svg" version="1.1" xmlns:xlink="http://www.w3.org/1999/xlink" xmlns:svgjs="http://svgjs.dev/svgjs" viewBox="0 0 800 800"><defs><linearGradient x1="50%" y1="0%" x2="50%" y2="100%" id="ccchaos-grad"><stop stop-color="hsl(206, 86%, 51%)" stop-opacity="1" offset="0%"></stop><stop stop-color="hsl(198, 33%, 80%)" stop-opacity="1" offset="100%"></stop></linearGradient></defs><g stroke-width="2" stroke="url(#ccchaos-grad)" fill="none" stroke-linecap="round"><path d="M379.88 104.48C389.28 106.97 398.66 110.24 408.01 114.13 417.38 118.1 426.73 122.46 436.06 127.05 445.44 131.38 454.83 135.77 464.24 140.13 473.73 144.01 483.27 147.8 492.87 151.47 502.59 154.63 512.4 157.72 522.29 160.77 532.33 163.41 542.48 166.15 552.7 169.02 563.05 171.67 573.45 174.61 583.86 177.89 594.32 181.14 604.7 184.84 614.91 189.02 625.02 193.31 634.82 198.15 644.17 203.53 653.21 209.1 661.62 215.22 669.26 221.85 676.34 228.69 682.46 236.02 687.49 243.78 691.77 251.72 694.85 260.05 696.65 268.69 697.66 277.47 697.4 286.52 695.91 295.76 693.8 305.09 690.63 314.58 686.53 324.16 682.22 333.79 677.32 343.47 672.01 353.15 667.05 362.85 662.09 372.53 657.31 382.14 653.41 391.75 650.09 401.05 647.4 410.02 645.81 419 644.86 427.65 644.51 436 645.13 444.36 646.15 452.44 647.43 460.25 649.34 468.13 651.21 475.82 652.89 483.33 654.76 491.01 656.16 498.62 656.94 506.21 657.55 514.08 657.34 522.04 656.27 530.16 654.79 538.66 652.35 547.42 648.96 556.46 645.09 565.96 640.29 575.77 634.63 585.88 628.52 596.37 621.63 607.07 614.07 617.89 606.16 628.84 597.69 639.67 588.75 650.18 579.59 660.39 570.07 669.95 560.28 678.6 550.38 686.44 540.28 693.03 530.05 698.15 519.79 702.08 509.46 704.34 499.1 704.85 488.75 704.15 478.39 701.81 468.07 697.95 457.78 693.33 447.52 687.65 437.33 681.19 427.15 674.86 417.03 668.41 407 662.19 396.96 657.07 387.22 652.82 377.79 649.6 368.33 647.91 359.16 647.29 350.27 647.64 341.34 649.31 332.67 651.62 324.25 654.31 315.78 657.68 307.54 660.93 299.53 663.79 291.43 666.59 283.54 668.55 275.86 669.51 268.05 669.86 260.43 668.96 252.99 666.78 245.41 663.76 237.99 659.46 230.74 653.95 223.35 647.66 216.11 640.31 209.05 632.07 201.86 623.26 194.85 613.77 188.06 603.76 181.16 593.44 174.51 582.78 168.13 571.93 161.71 560.98 155.61 549.95 149.88 538.94 144.18 527.95 138.89 517.04 134.05 506.25 129.33 495.53 125.12 484.94 121.45 474.49 117.95 464.11 115.04 453.86 112.74 443.74 110.65 433.67 109.19 423.69 108.39 413.84 107.8 404 107.86 394.25 108.6 384.6 109.49 374.96 111.01 365.63 113.08 356.65 115.25 347.65 117.92 338.99 121.06 330.67 124.19 322.35 127.73 314.38 131.64 306.78 135.45 299.17 139.59 291.92 144 285.05 148.26 278.14 152.76 271.6 157.49 265.39 162.03 259.12 166.78 253.15 171.72 247.46 176.46 241.62 181.42 235.99 186.57 230.54 191.55 224.85 196.75 219.25 202.18 213.71 207.47 207.83 213.02 201.94 218.83 196.02 224.55 189.71 230.57 183.34 236.86 176.92 243.11 170.15 249.67 163.38 256.53 156.67 263.37 149.75 270.52 143.02 277.97 136.59 285.41 130.2 293.15 124.28 301.16 118.97 309.18 113.99 317.47 109.81 326 106.52 334.53 103.79 343.3 102.08 352.29 101.44 361.28 101.41 370.48 102.43 379.87 104.48" stroke-dasharray="9 10" transform="rotate(0, 400, 400)" opacity="0.80"></path><path d="M382.24 115.21C391.33 117.66 400.43 120.86 409.54 124.68 418.66 128.58 427.81 132.86 436.97 137.4 446.16 141.71 455.4 146.1 464.67 150.49 474.02 154.44 483.43 158.31 492.91 162.09 502.48 165.38 512.14 168.59 521.87 171.77 531.71 174.52 541.62 177.33 551.57 180.25 561.6 182.9 571.64 185.78 581.62 188.95 591.61 192.02 601.46 195.48 611.07 199.36 620.54 203.28 629.65 207.7 638.27 212.6 646.56 217.64 654.2 223.18 661.07 229.21 667.4 235.41 672.79 242.08 677.16 249.17 680.83 256.41 683.38 264.04 684.75 272.01 685.42 280.09 684.93 288.46 683.33 297.06 681.2 305.74 678.12 314.6 674.21 323.59 670.14 332.63 665.53 341.75 660.56 350.92 655.92 360.11 651.26 369.31 646.75 378.5 643.05 387.69 639.84 396.63 637.18 405.31 635.52 414 634.42 422.44 633.85 430.63 634.18 438.86 634.87 446.87 635.81 454.7 637.36 462.61 638.9 470.39 640.3 478.08 641.93 485.93 643.16 493.78 643.88 501.66 644.5 509.81 644.42 518.08 643.57 526.52 642.4 535.3 640.37 544.31 637.48 553.58 634.18 563.21 630.01 573.09 625.04 583.18 619.67 593.53 613.54 603.99 606.75 614.44 599.64 624.9 591.95 635.13 583.77 644.94 575.38 654.37 566.58 663.08 557.48 670.85 548.25 677.82 538.78 683.55 529.14 687.87 519.46 691.1 509.65 692.77 499.78 692.83 489.9 691.83 479.98 689.34 470.06 685.48 460.16 681 450.27 675.56 440.42 669.43 430.58 663.45 420.78 657.36 411.03 651.47 401.29 646.57 391.82 642.45 382.64 639.25 373.43 637.43 364.48 636.57 355.8 636.59 347.07 637.85 338.59 639.71 330.34 641.97 322.03 644.92 313.94 647.82 306.06 650.44 298.09 653.11 290.31 655.09 282.72 656.23 275.03 656.9 267.5 656.48 260.13 654.92 252.65 652.65 245.31 649.2 238.14 644.62 230.84 639.32 223.7 633 216.73 625.78 209.65 618.01 202.75 609.5 196.06 600.42 189.31 591 182.79 581.16 176.54 571.04 170.28 560.76 164.33 550.33 158.74 539.84 153.21 529.32 148.07 518.8 143.39 508.36 138.83 497.95 134.76 487.62 131.22 477.42 127.86 467.27 125.06 457.24 122.87 447.34 120.89 437.48 119.52 427.74 118.79 418.12 118.27 408.53 118.38 399.05 119.15 389.71 120.08 380.36 121.61 371.36 123.68 362.7 125.85 354.03 128.51 345.71 131.62 337.74 134.73 329.75 138.24 322.11 142.09 314.82 145.87 307.51 149.96 300.54 154.31 293.91 158.53 287.23 162.98 280.86 167.65 274.8 172.13 268.63 176.82 262.72 181.69 257.05 186.38 251.2 191.26 245.52 196.32 239.97 201.21 234.17 206.31 228.43 211.61 222.72 216.78 216.69 222.18 210.64 227.82 204.56 233.36 198.12 239.16 191.64 245.23 185.15 251.23 178.35 257.52 171.59 264.09 164.93 270.63 158.13 277.46 151.54 284.57 145.28 291.67 139.11 299.05 133.44 306.71 128.38 314.35 123.66 322.27 119.72 330.43 116.66 338.59 114.13 347 112.58 355.64 112.06 364.27 112.12 373.14 113.17 382.23 115.21" stroke-dasharray="1 5" transform="rotate(4.04, 400, 400)" opacity="0.38"></path><path d="M385.28 125.94C394.07 128.35 402.9 131.48 411.77 135.21 420.64 139.02 429.56 143.23 438.52 147.7 447.51 151.97 456.56 156.35 465.66 160.75 474.82 164.75 484.05 168.71 493.34 172.58 502.71 175.99 512.14 179.33 521.63 182.62 531.19 185.51 540.79 188.42 550.39 191.4 560.04 194.09 569.64 196.97 579.13 200.06 588.58 203.03 597.84 206.32 606.81 209.96 615.61 213.6 624.01 217.66 631.9 222.16 639.44 226.74 646.33 231.79 652.45 237.28 658.06 242.9 662.78 248.96 666.52 255.43 669.64 262.03 671.71 269.01 672.7 276.33 673.08 283.75 672.41 291.47 670.73 299.44 668.62 307.48 665.65 315.74 661.92 324.15 658.1 332.61 653.79 341.19 649.14 349.86 644.81 358.55 640.45 367.3 636.2 376.08 632.69 384.87 629.59 393.48 626.97 401.9 625.25 410.32 624.03 418.57 623.26 426.64 623.32 434.75 623.71 442.72 624.34 450.57 625.54 458.51 626.75 466.39 627.87 474.24 629.25 482.24 630.29 490.28 630.91 498.4 631.49 506.75 631.47 515.24 630.78 523.9 629.84 532.85 628.15 542 625.68 551.35 622.87 560.98 619.27 570.78 614.92 580.71 610.21 590.79 604.79 600.87 598.72 610.84 592.36 620.71 585.42 630.27 577.98 639.32 570.33 647.94 562.26 655.79 553.85 662.69 545.31 668.8 536.49 673.72 527.47 677.3 518.38 679.87 509.13 681.02 499.78 680.69 490.4 679.43 480.96 676.83 471.48 673.02 462 668.68 452.51 663.49 443.02 657.69 433.55 652.06 424.08 646.32 414.65 640.74 405.22 636.08 396.03 632.09 387.09 628.91 378.14 626.98 369.43 625.91 360.95 625.64 352.43 626.51 344.13 627.95 336.04 629.78 327.9 632.3 319.96 634.84 312.2 637.19 304.37 639.68 296.71 641.61 289.22 642.84 281.64 643.73 274.2 643.69 266.93 642.65 259.55 641.01 252.31 638.31 245.23 634.56 238.04 630.18 231 624.82 224.14 618.58 217.19 611.81 210.42 604.3 203.87 596.17 197.26 587.67 190.89 578.71 184.8 569.4 178.71 559.89 172.93 550.15 167.51 540.28 162.15 530.33 157.19 520.33 152.67 510.34 148.27 500.34 144.36 490.4 140.97 480.54 137.75 470.7 135.08 460.97 133 451.35 131.13 441.77 129.85 432.29 129.19 422.96 128.74 413.64 128.9 404.44 129.7 395.39 130.66 386.34 132.2 377.64 134.27 369.29 136.42 360.92 139.06 352.9 142.13 345.21 145.21 337.51 148.68 330.13 152.48 323.09 156.21 316.01 160.25 309.25 164.54 302.79 168.71 296.26 173.1 290 177.71 284.01 182.14 277.9 186.78 271.99 191.58 266.28 196.21 260.38 201.02 254.61 206.01 248.94 210.82 243.02 215.83 237.13 221.03 231.27 226.09 225.09 231.36 218.9 236.85 212.69 242.23 206.16 247.85 199.62 253.72 193.08 259.51 186.31 265.57 179.6 271.89 173.03 278.16 166.38 284.71 159.97 291.52 153.92 298.31 148 305.37 142.58 312.7 137.78 320.01 133.33 327.58 129.65 335.41 126.81 343.23 124.49 351.3 123.1 359.62 122.7 367.92 122.83 376.48 123.91 385.27 125.93" stroke-dasharray="1 4" transform="rotate(8.08, 400, 400)" opacity="0.49"></path><path d="M388.88 136.66C397.38 139.03 405.94 142.09 414.55 145.72 423.17 149.44 431.85 153.56 440.58 157.95 449.34 162.17 458.16 166.52 467.04 170.91 475.97 174.96 484.96 178.97 494 182.92 503.1 186.45 512.25 189.92 521.41 193.33 530.63 196.34 539.86 199.37 549.04 202.44 558.22 205.21 567.32 208.11 576.26 211.19 585.13 214.11 593.76 217.28 602.07 220.76 610.19 224.18 617.87 227.97 625.02 232.14 631.83 236.35 637.99 240.97 643.41 246 648.34 251.11 652.43 256.64 655.6 262.56 658.22 268.57 659.87 274.95 660.53 281.67 660.66 288.48 659.85 295.59 658.13 302.97 656.05 310.41 653.2 318.08 649.68 325.94 646.09 333.84 642.07 341.9 637.74 350.1 633.71 358.3 629.64 366.62 625.65 375.03 622.32 383.43 619.34 391.73 616.77 399.9 615.01 408.07 613.68 416.14 612.74 424.1 612.56 432.1 612.67 440.03 612.99 447.89 613.86 455.85 614.77 463.79 615.6 471.75 616.71 479.86 617.55 488.04 618.04 496.31 618.54 504.78 618.53 513.39 617.94 522.16 617.18 531.15 615.74 540.3 613.62 549.6 611.22 559.09 608.11 568.69 604.3 578.31 600.18 587.99 595.4 597.59 590 606.98 584.34 616.19 578.11 625.01 571.38 633.26 564.45 641.05 557.09 648.05 549.36 654.09 541.5 659.38 533.34 663.53 524.94 666.43 516.46 668.42 507.8 669.09 498.99 668.43 490.15 666.96 481.2 664.3 472.19 660.55 463.16 656.37 454.09 651.45 445 645.97 435.91 640.68 426.8 635.28 417.7 630.02 408.6 625.58 399.71 621.73 391.04 618.58 382.35 616.57 373.88 615.31 365.61 614.77 357.31 615.28 349.2 616.32 341.28 617.74 333.32 619.84 325.52 622.01 317.9 624.06 310.21 626.32 302.68 628.14 295.3 629.38 287.84 630.41 280.52 630.64 273.35 630 266.09 628.9 258.96 626.83 251.99 623.82 244.93 620.26 238.02 615.78 231.29 610.46 224.49 604.65 217.87 598.09 211.47 590.91 205.03 583.36 198.83 575.3 192.91 566.84 187.01 558.15 181.42 549.18 176.18 540.01 171.01 530.73 166.24 521.33 161.89 511.88 157.68 502.4 153.93 492.92 150.7 483.48 147.63 474.05 145.1 464.69 143.14 455.42 141.38 446.17 140.19 437.02 139.61 428 139.22 418.99 139.43 410.1 140.25 401.35 141.23 392.59 142.77 384.18 144.82 376.11 146.97 368.02 149.57 360.25 152.6 352.82 155.64 345.35 159.05 338.19 162.79 331.34 166.47 324.44 170.45 317.82 174.68 311.47 178.79 305.04 183.13 298.84 187.67 292.87 192.05 286.76 196.63 280.83 201.37 275.04 205.95 269.07 210.7 263.19 215.61 257.39 220.36 251.34 225.29 245.32 230.39 239.31 235.36 233.02 240.52 226.72 245.88 220.41 251.13 213.84 256.6 207.27 262.29 200.74 267.9 194.03 273.76 187.43 279.85 180.99 285.89 174.52 292.19 168.33 298.74 162.52 305.25 156.86 312.03 151.72 319.06 147.2 326.07 143.02 333.34 139.59 340.86 136.99 348.36 134.87 356.12 133.64 364.12 133.34 372.12 133.55 380.37 134.66 388.87 136.66" stroke-dasharray="9 9" transform="rotate(12.12, 400, 400)" opacity="0.33"></path><path d="M392.91 147.39C401.13 149.7 409.41 152.68 417.74 156.21 426.09 159.84 434.51 163.85 442.98 168.15 451.48 172.31 460.04 176.61 468.64 180.98 477.29 185.05 485.99 189.1 494.72 193.12 503.5 196.75 512.29 200.32 521.08 203.85 529.9 207 538.68 210.15 547.38 213.32 556.05 216.19 564.6 219.16 572.95 222.26 581.2 225.17 589.18 228.29 596.81 231.66 604.23 234.94 611.2 238.53 617.63 242.44 623.73 246.35 629.2 250.63 633.95 255.28 638.25 259.96 641.77 265.03 644.42 270.46 646.59 275.96 647.87 281.81 648.25 288 648.18 294.24 647.27 300.8 645.53 307.63 643.5 314.51 640.79 321.64 637.48 328.99 634.14 336.37 630.4 343.94 626.37 351.69 622.63 359.44 618.84 367.35 615.1 375.39 611.95 383.44 609.1 391.43 606.58 399.36 604.8 407.3 603.37 415.19 602.28 423.03 601.88 430.91 601.74 438.77 601.79 446.63 602.35 454.56 602.95 462.53 603.51 470.54 604.35 478.68 604.98 486.91 605.31 495.24 605.7 503.73 605.66 512.35 605.12 521.1 604.46 530.01 603.22 539.04 601.38 548.15 599.31 557.38 596.6 566.63 593.26 575.83 589.67 585.01 585.46 594.03 580.66 602.75 575.63 611.25 570.06 619.29 564 626.72 557.75 633.68 551.06 639.83 544.01 645.06 536.82 649.57 529.3 653.01 521.52 655.28 513.67 656.75 505.59 657.01 497.34 656.08 489.05 654.45 480.62 651.75 472.09 648.1 463.54 644.09 454.91 639.43 446.23 634.28 437.55 629.32 428.82 624.26 420.07 619.29 411.31 615.08 402.74 611.37 394.35 608.28 385.95 606.2 377.72 604.78 369.68 603.99 361.61 604.17 353.7 604.84 345.96 605.87 338.19 607.56 330.56 609.35 323.09 611.08 315.56 613.07 308.17 614.73 300.92 615.92 293.6 617.01 286.41 617.41 279.37 617.08 272.24 616.38 265.26 614.85 258.42 612.46 251.51 609.62 244.75 605.93 238.17 601.45 231.54 596.53 225.09 590.89 218.86 584.61 212.62 577.99 206.62 570.83 200.89 563.24 195.2 555.41 189.81 547.24 184.76 538.82 179.81 530.27 175.23 521.55 171.08 512.72 167.06 503.83 163.49 494.89 160.41 485.95 157.51 477 155.12 468.08 153.28 459.21 151.63 450.36 150.54 441.58 150.03 432.9 149.71 424.23 149.96 415.66 150.8 407.22 151.8 398.78 153.34 390.65 155.36 382.83 157.48 375 160.05 367.47 163.02 360.24 166.01 352.99 169.36 346 173.03 339.3 176.65 332.53 180.56 326.01 184.71 319.73 188.77 313.36 193.04 307.18 197.51 301.19 201.84 295.06 206.35 289.07 211.03 283.2 215.55 277.14 220.24 271.16 225.08 265.23 229.77 259.08 234.63 252.94 239.65 246.82 244.54 240.45 249.6 234.08 254.85 227.72 259.98 221.15 265.32 214.61 270.86 208.14 276.32 201.54 281.99 195.08 287.9 188.82 293.73 182.57 299.81 176.63 306.13 171.08 312.4 165.71 318.92 160.87 325.68 156.63 332.42 152.74 339.4 149.57 346.64 147.19 353.85 145.27 361.32 144.2 369.03 144 376.73 144.28 384.69 145.41 392.9 147.38" stroke-dasharray="2 8" transform="rotate(16.16, 400, 400)" opacity="0.24"></path><path d="M397.22 158.11C405.14 160.37 413.13 163.26 421.18 166.68 429.24 170.2 437.37 174.11 445.55 178.29 453.75 182.38 462.01 186.62 470.3 190.95 478.62 195.01 486.98 199.1 495.35 203.16 503.74 206.87 512.13 210.54 520.48 214.18 528.84 217.46 537.12 220.73 545.3 224.01 553.42 226.99 561.38 230.05 569.12 233.21 576.73 236.15 584.04 239.27 590.98 242.58 597.71 245.78 603.98 249.24 609.73 252.97 617.55 258.67 629.31 271.69 633 279.06 635.25 286.82 635.16 304.01 632.94 313.38 630.99 319.75 628.42 326.39 625.32 333.27 622.22 340.17 618.76 347.29 615.03 354.61 611.57 361.93 608.05 369.46 604.55 377.16 601.58 384.86 598.85 392.56 596.4 400.25 594.6 407.95 593.1 415.65 591.89 423.35 591.29 431.09 590.92 438.86 590.71 446.65 590.99 454.52 591.31 462.44 591.59 470.43 592.17 478.53 592.58 486.72 592.73 495 592.99 503.4 592.88 511.92 592.34 520.51 591.74 529.22 590.64 538 589 546.8 587.2 555.64 584.83 564.44 581.88 573.12 578.74 581.71 575.02 590.07 570.76 598.08 566.3 605.82 561.33 613.05 555.88 619.66 550.27 625.79 544.22 631.14 537.8 635.59 531.25 639.38 524.37 642.17 517.2 643.88 509.96 644.87 502.47 644.79 494.78 643.63 487.05 641.88 479.14 639.19 471.11 635.65 463.06 631.84 454.89 627.44 446.64 622.61 438.38 617.97 430.05 613.23 421.67 608.57 413.28 604.57 405.03 601.01 396.94 597.98 388.84 595.85 380.89 594.3 373.08 593.3 365.26 593.18 357.58 593.5 350.04 594.15 342.47 595.45 335.03 596.86 327.72 598.26 320.37 599.97 313.14 601.42 306.05 602.5 298.9 603.56 291.86 604.06 284.97 603.93 278.01 603.55 271.19 602.43 264.5 600.57 257.78 598.33 251.2 595.33 244.79 591.6 238.35 587.48 232.11 582.68 226.07 577.26 220.05 571.52 214.26 565.24 208.74 558.5 203.27 551.53 198.11 544.19 193.28 536.55 188.54 528.77 184.18 520.76 180.23 512.6 176.41 504.37 173.03 496.03 170.12 487.64 167.38 479.23 165.14 470.8 163.43 462.4 161.9 453.99 160.9 445.62 160.46 437.32 160.21 429.03 160.5 420.81 161.36 412.68 162.37 404.56 163.89 396.71 165.88 389.15 167.97 381.57 170.49 374.26 173.39 367.22 176.32 360.15 179.61 353.31 183.19 346.72 186.75 340.07 190.58 333.62 194.65 327.38 198.63 321.04 202.84 314.86 207.23 308.83 211.5 302.68 215.94 296.63 220.55 290.67 225.02 284.54 229.64 278.46 234.42 272.43 239.05 266.2 243.84 259.99 248.78 253.79 253.59 247.39 258.57 241 263.71 234.65 268.74 228.13 273.96 221.67 279.37 215.31 284.69 208.87 290.21 202.59 295.94 196.55 301.6 190.55 307.49 184.89 313.59 179.63 319.65 174.57 325.94 170.03 332.46 166.08 338.94 162.48 345.67 159.57 352.63 157.41 359.58 155.69 366.77 154.77 374.2 154.68 381.62 155.02 389.29 156.17 397.21 158.11" stroke-dasharray="5 0" transform="rotate(20.200000000000003, 400, 400)" opacity="0.31"></path><path d="M401.63 168.84C409.25 171.04 416.94 173.84 424.69 177.14 432.44 180.55 440.26 184.33 448.11 188.4 455.98 192.39 463.9 196.55 471.83 200.82 479.79 204.86 487.76 208.95 495.71 213.03 503.68 216.81 511.62 220.56 519.49 224.28 527.34 227.68 535.09 231.07 542.7 234.46 550.25 237.57 557.6 240.73 564.69 243.96 571.66 246.97 578.31 250.12 584.57 253.43 590.63 256.59 596.23 259.97 601.31 263.59 608.19 269.04 618.31 281.32 621.35 288.2 623.12 295.4 622.57 311.37 620.37 320.09 618.51 326.02 616.1 332.22 613.22 338.67 610.35 345.13 607.16 351.83 603.71 358.76 600.53 365.69 597.26 372.85 593.99 380.22 591.2 387.59 588.6 395 586.22 402.44 584.42 409.9 582.87 417.39 581.55 424.93 580.79 432.49 580.21 440.11 579.78 447.79 579.79 455.52 579.84 463.33 579.87 471.22 580.19 479.18 580.37 487.23 580.35 495.35 580.45 503.56 580.23 511.85 579.66 520.18 579.08 528.58 578.05 536.98 576.56 545.36 574.97 553.71 572.86 561.97 570.24 570.04 567.47 577.97 564.18 585.62 560.39 592.87 556.43 599.83 551.99 606.26 547.1 612.06 542.07 617.39 536.62 621.97 530.79 625.69 524.85 628.82 518.58 631.01 512 632.23 505.35 632.82 498.44 632.45 491.3 631.11 484.12 629.29 476.75 626.63 469.21 623.22 461.66 619.61 453.97 615.48 446.16 610.96 438.35 606.64 430.43 602.22 422.43 597.84 414.43 594.07 406.53 590.66 398.76 587.7 390.98 585.54 383.31 583.87 375.77 582.69 368.22 582.3 360.78 582.3 353.46 582.61 346.12 583.53 338.88 584.57 331.77 585.64 324.63 587.04 317.59 588.25 310.67 589.17 303.71 590.15 296.86 590.66 290.14 590.66 283.38 590.48 276.75 589.68 270.26 588.23 263.73 586.49 257.36 584.07 251.16 580.98 244.94 577.58 238.92 573.53 233.11 568.9 227.32 563.97 221.77 558.52 216.48 552.61 211.26 546.47 206.33 539.94 201.73 533.08 197.23 526.08 193.09 518.81 189.35 511.35 185.74 503.8 182.56 496.1 179.83 488.31 177.26 480.49 175.17 472.6 173.58 464.69 172.17 456.77 171.27 448.85 170.9 440.96 170.71 433.07 171.04 425.22 171.91 417.42 172.92 409.63 174.43 402.08 176.38 394.76 178.43 387.44 180.89 380.34 183.72 373.47 186.59 366.57 189.79 359.87 193.29 353.38 196.76 346.82 200.5 340.44 204.48 334.22 208.39 327.91 212.5 321.74 216.81 315.68 221.01 309.5 225.38 303.4 229.91 297.37 234.31 291.2 238.87 285.06 243.57 278.96 248.14 272.7 252.86 266.45 257.72 260.23 262.46 253.85 267.35 247.5 272.4 241.21 277.34 234.79 282.46 228.46 287.74 222.26 292.93 216.03 298.32 209.99 303.89 204.2 309.39 198.49 315.1 193.13 321.01 188.18 326.88 183.44 332.95 179.22 339.25 175.57 345.51 172.26 351.99 169.61 358.7 167.67 365.39 166.15 372.31 165.37 379.47 165.37 386.61 165.78 394 166.93 401.62 168.83" stroke-dasharray="9 9" transform="rotate(24.24, 400, 400)" opacity="0.89"></path><path d="M405.98 179.56C413.29 181.7 420.67 184.4 428.09 187.57 435.51 190.86 442.99 194.51 450.49 198.45 458 202.33 465.54 206.4 473.07 210.59 480.62 214.59 488.17 218.66 495.67 222.74 503.17 226.56 510.62 230.37 517.97 234.16 525.29 237.66 532.48 241.16 539.5 244.65 546.45 247.88 553.18 251.14 559.64 254.46 565.96 257.56 571.95 260.77 577.56 264.1 585.45 268.96 598.4 279.48 603.25 285.26 607.03 291.22 610.88 304.49 610.93 311.82 609.97 319.43 604.95 336.05 601.16 345.02 598.52 351.09 595.59 357.42 592.43 363.99 589.5 370.55 586.48 377.36 583.44 384.41 580.82 391.45 578.35 398.57 576.05 405.75 574.26 412.95 572.67 420.21 571.27 427.53 570.37 434.88 569.61 442.31 568.97 449.8 568.75 457.33 568.55 464.95 568.34 472.63 568.41 480.37 568.37 488.18 568.16 496.05 568.09 503.96 567.76 511.91 567.12 519.87 566.51 527.84 565.52 535.78 564.13 543.63 562.67 551.42 560.77 559.06 558.42 566.45 555.95 573.69 553.01 580.59 549.62 587.06 546.1 593.24 542.14 598.88 537.75 603.89 533.24 608.47 528.33 612.32 523.05 615.37 517.67 617.9 511.96 619.57 505.95 620.35 499.87 620.6 493.51 619.99 486.92 618.52 480.28 616.66 473.43 614.06 466.4 610.81 459.35 607.4 452.14 603.54 444.78 599.34 437.42 595.33 429.93 591.21 422.33 587.12 414.73 583.56 407.21 580.31 399.77 577.42 392.33 575.25 384.98 573.5 377.72 572.16 370.46 571.53 363.28 571.24 356.21 571.24 349.12 571.8 342.13 572.49 335.24 573.23 328.32 574.3 321.51 575.25 314.8 575.98 308.06 576.81 301.43 577.28 294.92 577.32 288.38 577.26 281.97 576.68 275.69 575.54 269.41 574.19 263.26 572.24 257.3 569.69 251.33 566.89 245.55 563.51 239.99 559.57 234.46 555.39 229.16 550.7 224.13 545.55 219.16 540.2 214.49 534.45 210.13 528.35 205.88 522.11 201.98 515.58 198.46 508.82 195.07 501.97 192.09 494.93 189.54 487.76 187.15 480.54 185.22 473.22 183.76 465.84 182.47 458.44 181.66 450.99 181.36 443.54 181.22 436.08 181.59 428.62 182.46 421.17 183.47 413.73 184.96 406.48 186.86 399.42 188.86 392.36 191.26 385.47 194.01 378.78 196.79 372.05 199.91 365.49 203.31 359.09 206.69 352.64 210.33 346.33 214.21 340.14 218.02 333.88 222.05 327.71 226.26 321.63 230.37 315.46 234.66 309.34 239.1 303.28 243.43 297.09 247.91 290.94 252.53 284.83 257.03 278.58 261.67 272.35 266.45 266.17 271.11 259.87 275.93 253.61 280.88 247.43 285.73 241.18 290.74 235.03 295.91 229.05 300.99 223.06 306.24 217.29 311.67 211.8 317.03 206.41 322.57 201.37 328.3 196.75 333.99 192.35 339.87 188.44 345.95 185.1 351.99 182.08 358.25 179.69 364.71 177.97 371.15 176.63 377.81 175.99 384.69 176.08 391.56 176.54 398.65 177.7 405.97 179.56" stroke-dasharray="5 9" transform="rotate(28.28, 400, 400)" opacity="0.37"></path><path d="M410.1 190.29C417.09 192.35 424.14 194.95 431.21 198 438.29 201.15 445.4 204.66 452.51 208.46 459.64 212.22 466.77 216.17 473.88 220.27 480.99 224.2 488.07 228.22 495.09 232.28 502.1 236.11 509.03 239.95 515.84 243.79 522.6 247.37 529.22 250.95 535.64 254.54 541.99 257.88 548.09 261.24 553.92 264.65 559.61 267.85 564.97 271.13 569.95 274.52 576.93 279.42 588.2 289.85 592.34 295.47 595.51 301.22 598.54 313.87 598.4 320.81 597.38 327.98 592.64 343.64 589.15 352.11 586.74 357.83 584.06 363.82 581.17 370.05 578.49 376.27 575.71 382.75 572.89 389.48 570.44 396.21 568.1 403.03 565.89 409.93 564.12 416.84 562.51 423.83 561.05 430.9 560.02 437.99 559.11 445.16 558.3 452.4 557.86 459.67 557.44 467.01 557.01 474.4 556.85 481.83 556.59 489.31 556.2 496.82 555.95 504.34 555.49 511.86 554.77 519.35 554.1 526.82 553.11 534.2 551.77 541.46 550.4 548.62 548.65 555.58 546.5 562.26 544.27 568.76 541.63 574.9 538.58 580.61 533.64 588.45 521.65 600.62 514.66 604.66 507.21 607.25 490.67 607.84 481.69 605.89 475.58 604.02 469.24 601.51 462.7 598.42 456.15 595.23 449.41 591.64 442.51 587.74 435.61 584.03 428.56 580.21 421.37 576.39 414.19 573.05 407.05 569.95 399.97 567.16 392.89 565 385.87 563.18 378.92 561.71 371.98 560.87 365.1 560.33 358.3 560.04 351.49 560.26 344.76 560.62 338.13 561.04 331.47 561.79 324.9 562.46 318.44 562.97 311.96 563.62 305.57 563.98 299.3 564 293.02 563.99 286.86 563.53 280.84 562.61 274.81 561.54 268.93 559.96 263.23 557.85 257.54 555.55 252.03 552.72 246.74 549.39 241.48 545.86 236.46 541.84 231.7 537.39 227.01 532.76 222.6 527.73 218.51 522.35 214.51 516.84 210.86 511.03 207.57 504.95 204.4 498.79 201.63 492.41 199.27 485.86 197.06 479.26 195.27 472.52 193.94 465.67 192.77 458.81 192.06 451.86 191.83 444.86 191.74 437.85 192.14 430.79 193.01 423.72 194.02 416.64 195.47 409.7 197.33 402.92 199.27 396.12 201.59 389.47 204.25 382.95 206.95 376.42 209.96 370.01 213.25 363.72 216.53 357.39 220.07 351.16 223.82 345.03 227.54 338.83 231.45 332.71 235.55 326.65 239.57 320.51 243.76 314.42 248.1 308.38 252.35 302.23 256.74 296.12 261.26 290.04 265.68 283.87 270.24 277.73 274.92 271.64 279.51 265.47 284.23 259.37 289.08 253.37 293.84 247.33 298.75 241.43 303.8 235.7 308.77 230.01 313.9 224.55 319.18 219.37 324.4 214.32 329.79 209.63 335.34 205.35 340.85 201.29 346.54 197.72 352.41 194.68 358.25 191.95 364.28 189.81 370.5 188.3 376.7 187.14 383.1 186.63 389.7 186.8 396.29 187.31 403.09 188.47 410.09 190.28" stroke-dasharray="3 10" transform="rotate(32.32, 400, 400)" opacity="0.99"></path><path d="M413.83 201.01C420.49 203 427.19 205.49 433.89 208.4 440.6 211.42 447.32 214.78 454.03 218.42 460.74 222.05 467.44 225.87 474.1 229.84 480.75 233.7 487.35 237.65 493.86 241.65 500.36 245.47 506.75 249.31 513 253.17 519.2 256.8 525.24 260.45 531.07 264.1 536.81 267.53 542.31 270.99 547.53 274.48 554.99 279.46 567.88 289.57 573.14 294.8 577.63 300 583.78 311.15 585.37 317.17 586.12 323.34 584.81 336.8 582.86 344.11 581.34 349.05 579.44 354.23 577.2 359.67 575.01 365.09 572.57 370.76 569.94 376.67 567.49 382.58 564.94 388.75 562.34 395.15 560.06 401.56 557.84 408.07 555.73 414.67 554 421.27 552.38 427.96 550.87 434.72 549.75 441.5 548.72 448.36 547.75 455.28 547.12 462.21 546.51 469.21 545.88 476.23 545.5 483.27 545.04 490.34 544.47 497.4 544.05 504.44 543.44 511.46 542.62 518.4 541.87 525.29 540.85 532.07 539.53 538.67 538.21 545.16 536.56 551.41 534.56 557.37 531.32 565.82 522.88 580.21 517.71 585.86 512.06 590.37 498.99 595.49 491.63 596 483.92 595.27 467.15 590.17 458.18 586.06 452.11 583.09 445.84 579.77 439.41 576.17 432.96 572.74 426.35 569.22 419.59 565.67 412.84 562.54 406.1 559.6 399.39 556.91 392.69 554.77 386.03 552.91 379.42 551.33 372.81 550.32 366.25 549.55 359.76 549 353.26 548.93 346.83 548.97 340.47 549.08 334.11 549.52 327.83 549.91 321.64 550.18 315.44 550.62 309.33 550.83 303.34 550.77 294.41 550.53 277.2 548.01 268.98 545.58 260.99 542.48 246.06 533.77 239.22 528.21 234.82 524.23 230.69 519.86 226.87 515.14 223.14 510.3 219.73 505.15 216.68 499.73 213.75 494.23 211.18 488.49 209.01 482.55 206.98 476.56 205.35 470.4 204.15 464.09 203.1 457.77 202.48 451.32 202.3 444.78 202.28 438.24 202.69 431.61 203.56 424.91 204.56 418.21 205.97 411.61 207.77 405.11 209.65 398.61 211.88 392.2 214.45 385.89 217.05 379.57 219.95 373.33 223.12 367.18 226.29 361 229.7 354.89 233.33 348.85 236.93 342.76 240.72 336.72 244.7 330.73 248.61 324.68 252.68 318.66 256.91 312.69 261.05 306.64 265.34 300.63 269.75 294.66 274.08 288.62 278.54 282.62 283.12 276.7 287.61 270.73 292.23 264.84 296.98 259.08 301.64 253.3 306.44 247.69 311.36 242.26 316.22 236.9 321.21 231.78 326.35 226.96 331.43 222.27 336.66 217.94 342.04 214.01 347.38 210.3 352.88 207.05 358.54 204.32 364.17 201.87 369.98 199.97 375.95 198.67 381.91 197.68 388.04 197.3 394.35 197.55 400.66 198.1 407.15 199.25 413.81 201.01" stroke-dasharray="0 10" transform="rotate(36.36, 400, 400)" opacity="0.68"></path><path d="M417.02 211.74C423.35 213.65 429.68 216.02 436 218.79 442.32 221.67 448.63 224.87 454.91 228.34 467.48 235.25 479.88 242.87 491.9 250.86 503.81 258.22 515.19 265.74 525.76 273.32 536 280.12 545.18 287.07 553.01 294.22 560.23 300.77 565.86 307.76 569.66 315.28 572.74 322.46 573.95 330.38 573.27 339.07 572.12 347.62 569.39 357.07 565.3 367.4 563.33 372.55 561.12 377.94 558.73 383.56 556.51 389.17 554.19 395.02 551.78 401.1 549.67 407.19 547.59 413.37 545.57 419.63 543.89 425.9 542.28 432.25 540.75 438.67 538.69 451.53 536.8 464.65 534.95 477.83 534.02 490.99 532.68 504.1 530.73 516.84 529.11 529.3 526.47 541.07 522.71 551.7 518.85 561.57 513.69 569.82 507.25 576.02 500.59 580.96 492.65 583.54 483.58 583.58 474.35 582.45 464.07 579.08 452.92 573.74 447.32 570.99 441.52 567.93 435.54 564.62 429.55 561.48 423.38 558.23 417.06 554.94 410.74 552.02 404.41 549.25 398.1 546.67 391.79 544.56 385.51 542.68 379.25 541.03 366.76 539.2 354.4 538.07 342.33 537.38 330.25 537.93 318.45 538.17 307.07 537.71 295.73 537.51 284.84 535.99 274.6 533.01 264.5 529.68 255.13 524.7 246.71 518.17 238.59 511.19 231.55 502.8 225.81 493.23 220.53 483.4 216.66 472.6 214.38 461.07 213.44 455.28 212.91 449.34 212.8 443.26 212.82 437.19 213.25 430.99 214.12 424.69 215.1 418.39 216.46 412.13 218.19 405.94 220 399.75 222.15 393.61 224.6 387.54 229.63 375.36 235.74 363.37 242.73 351.61 249.63 339.69 257.28 327.89 265.51 316.27 273.49 304.45 282.03 292.78 291.01 281.42 299.71 269.98 308.9 259 318.53 248.78 327.93 238.87 337.86 230.07 348.3 222.74 358.58 216.24 369.47 211.59 380.93 209.08 386.63 208.26 392.5 207.99 398.51 208.31 404.52 208.89 410.69 210.03 417.01 211.73" stroke-dasharray="4 8" transform="rotate(40.400000000000006, 400, 400)" opacity="0.87"></path><path d="M419.57 222.46C431.49 226.28 443.37 231.67 455.05 238.23 466.72 244.83 478.15 252.15 489.13 259.9 499.99 267.15 510.26 274.62 519.7 282.18 528.83 289.08 536.92 296.14 543.72 303.37 550 310.05 554.81 317.09 557.97 324.56 560.55 331.7 561.47 339.45 560.72 347.87 559.63 356.13 557.15 365.18 553.45 375.03 550.01 384.82 545.86 395.47 541.23 406.98 537.59 418.49 534.02 430.35 530.67 442.4 528.46 454.47 526.34 466.71 524.22 478.9 522.93 491.04 521.28 503 519.11 514.47 517.3 525.63 514.63 536.01 510.99 545.22 507.35 553.7 502.57 560.63 496.65 565.65 490.59 569.59 483.38 571.42 475.11 571.02 466.7 569.69 457.31 566.42 447.05 561.45 436.74 556.44 425.64 550.55 413.87 544.22 402.1 539.15 390.26 534.61 378.52 530.8 366.79 528.67 355.15 527.11 343.76 525.93 332.39 525.91 321.27 525.66 310.56 524.89 299.91 524.47 289.7 522.99 280.12 520.3 270.7 517.41 261.99 513.1 254.19 507.41 246.7 501.39 240.22 494.05 234.97 485.56 230.15 476.85 226.65 467.15 224.63 456.66 223.11 446.09 223.08 434.84 224.67 423.06 226.68 411.27 230.1 399.52 234.72 387.93 239.51 376.3 245.35 364.75 252.02 353.36 258.64 341.87 265.99 330.45 273.91 319.22 281.63 307.86 289.89 296.69 298.58 285.87 307.04 275.08 315.96 264.8 325.28 255.31 334.4 246.19 344.01 238.16 354.05 231.56 363.96 225.74 374.4 221.65 385.33 219.54 396.21 218.45 407.63 219.4 419.56 222.46" stroke-dasharray="3 5" transform="rotate(44.44, 400, 400)" opacity="0.10"></path><path d="M421.36 233.19C432.53 236.81 443.58 241.89 454.36 248.07 465.13 254.33 475.58 261.33 485.52 268.78 495.35 275.85 504.56 283.19 512.92 290.68 521.01 297.61 528.09 304.71 533.96 311.96 539.4 318.73 543.5 325.81 546.11 333.23 548.27 340.34 548.97 347.97 548.2 356.14 547.2 364.16 544.97 372.85 541.67 382.23 538.62 391.55 534.89 401.64 530.68 412.47 527.31 423.3 523.92 434.4 520.63 445.6 518.32 456.8 516.03 468.08 513.69 479.21 512.09 490.25 510.17 501 507.8 511.18 505.79 521.04 503.06 530.06 499.5 537.91 496.01 545.1 491.53 550.82 486.05 554.79 480.5 557.88 473.91 559.09 466.35 558.36 458.7 556.91 450.12 553.79 440.71 549.2 431.26 544.65 421.04 539.29 410.15 533.49 399.26 528.78 388.26 524.43 377.3 520.63 366.37 518.27 355.51 516.36 344.85 514.74 334.24 514.19 323.86 513.48 313.86 512.36 303.95 511.67 294.47 510.12 285.59 507.58 276.88 504.98 268.86 501.17 261.7 496.14 254.83 490.9 248.93 484.45 244.17 476.91 239.81 469.2 236.68 460.51 234.91 450.98 233.59 441.4 233.66 431.07 235.22 420.12 237.17 409.16 240.42 398.13 244.8 387.13 249.35 376.13 254.88 365.12 261.21 354.22 267.52 343.26 274.53 332.35 282.1 321.63 289.52 310.87 297.47 300.31 305.82 290.15 313.99 280.1 322.59 270.59 331.56 261.89 340.37 253.59 349.61 246.35 359.22 240.48 368.74 235.33 378.7 231.78 389.07 230.05 399.4 229.22 410.18 230.24 421.36 233.19" stroke-dasharray="0 3" transform="rotate(48.48, 400, 400)" opacity="0.56"></path><path d="M422.32 243.91C432.72 247.33 442.92 252.09 452.8 257.88 462.65 263.78 472.13 270.4 481.07 277.51 489.9 284.34 498.08 291.49 505.44 298.81 512.56 305.69 518.73 312.76 523.77 319.97 528.46 326.78 531.94 333.85 534.11 341.2 535.92 348.26 536.46 355.75 535.72 363.69 534.83 371.47 532.87 379.82 529.94 388.74 527.26 397.61 523.94 407.12 520.13 417.24 517.03 427.37 513.82 437.66 510.64 447.97 508.27 458.26 505.85 468.51 503.35 478.54 501.49 488.44 499.34 497.97 496.8 506.87 494.61 515.44 491.8 523.17 488.3 529.75 482.78 538.09 467.4 546.21 457.46 545.61 450.48 544.12 442.65 541.19 434.06 536.99 425.42 532.89 416.05 528.05 406.03 522.77 396.02 518.41 385.87 514.27 375.74 510.53 365.64 508 355.58 505.8 345.71 503.82 335.9 502.8 326.3 501.65 317.06 500.19 307.92 499.18 299.2 497.49 291.05 494.99 283.08 492.54 275.76 489.07 269.26 484.55 263.02 479.92 257.7 474.2 253.43 467.48 249.52 460.65 246.74 452.86 245.22 444.24 244.1 435.57 244.25 426.14 245.77 416.03 247.64 405.92 250.72 395.64 254.84 385.33 259.12 375.01 264.33 364.64 270.3 354.34 276.27 344.02 282.92 333.74 290.09 323.66 297.17 313.6 304.75 303.77 312.72 294.37 320.55 285.12 328.79 276.45 337.36 268.58 345.81 261.12 354.63 254.68 363.78 249.52 372.85 245.02 382.3 241.99 392.07 240.61 401.82 240.01 411.93 241.09 422.32 243.91" stroke-dasharray="7 0" transform="rotate(52.52, 400, 400)" opacity="0.35"></path><path d="M422.43 254.64C432.04 257.84 441.38 262.27 450.35 267.65 459.3 273.16 467.83 279.38 475.8 286.1 483.67 292.62 490.89 299.49 497.32 306.58 503.56 313.32 508.89 320.27 513.21 327.37 517.25 334.13 520.21 341.13 522.01 348.35 523.56 355.33 523.99 362.65 523.3 370.33 522.54 377.87 520.83 385.87 518.27 394.32 515.93 402.72 513 411.64 509.58 421.04 506.74 430.44 503.74 439.89 500.68 449.26 498.3 458.61 495.81 467.82 493.2 476.72 491.15 485.49 488.81 493.82 486.13 501.47 483.79 508.84 480.91 515.35 477.45 520.79 472.09 527.61 457.72 533.73 448.6 532.8 442.23 531.33 435.09 528.63 427.25 524.83 419.38 521.16 410.84 516.83 401.69 512.04 392.54 508.04 383.25 504.14 373.97 500.49 364.71 497.86 355.49 495.43 346.44 493.17 337.45 491.74 328.67 490.2 320.23 488.41 311.9 487.08 303.96 485.2 296.56 482.67 289.34 480.27 282.73 477.02 276.89 472.88 271.29 468.7 266.53 463.58 262.74 457.56 259.28 451.46 256.84 444.48 255.56 436.69 254.62 428.87 254.85 420.29 256.32 411.03 258.11 401.76 261 392.28 264.84 382.71 268.85 373.15 273.72 363.51 279.29 353.91 284.9 344.32 291.14 334.79 297.89 325.46 304.58 316.19 311.74 307.18 319.28 298.61 326.72 290.24 334.54 282.44 342.66 275.43 350.69 268.81 359.06 263.16 367.69 258.7 376.27 254.82 385.17 252.28 394.31 251.22 403.43 250.83 412.83 251.96 422.43 254.64" stroke-dasharray="9 6" transform="rotate(56.56, 400, 400)" opacity="0.34"></path><path d="M421.68 265.36C430.47 268.34 438.95 272.43 447.03 277.39 455.08 282.49 462.69 288.28 469.74 294.55 476.71 300.71 483.04 307.24 488.63 314 494.05 320.52 498.66 327.26 502.34 334.15 505.82 340.78 508.34 347.62 509.85 354.64 511.19 361.47 511.55 368.58 510.96 375.95 510.33 383.21 508.87 390.82 506.66 398.77 504.65 406.68 502.08 414.98 499.02 423.63 496.45 432.28 493.67 440.88 490.76 449.3 488.4 457.7 485.89 465.86 483.23 473.65 481.04 481.32 478.58 488.49 475.81 494.98 471.88 503.94 461.78 516.58 455.34 519.75 450.87 521.05 445.72 521.12 439.91 519.96 434.08 518.56 427.59 516.11 420.47 512.71 413.32 509.47 405.57 505.62 397.27 501.32 388.98 497.66 380.55 494.01 372.13 490.51 363.73 487.83 355.37 485.26 347.17 482.79 339.02 481.02 331.08 479.14 323.46 477.07 315.94 475.43 308.8 473.35 302.18 470.75 295.71 468.32 289.81 465.19 284.62 461.33 279.65 457.49 275.45 452.83 272.13 447.39 269.1 441.91 267 435.64 265.93 428.62 265.17 421.58 265.46 413.82 266.88 405.4 268.56 396.98 271.25 388.32 274.81 379.55 278.53 370.8 283.03 361.96 288.2 353.16 293.41 344.39 299.21 335.68 305.5 327.19 311.76 318.79 318.47 310.67 325.52 303 332.52 295.53 339.87 288.63 347.49 282.49 355.04 276.71 362.89 271.83 370.97 268.03 379 264.74 387.29 262.65 395.76 261.89 404.23 261.69 412.89 262.83 421.68 265.36" stroke-dasharray="0 1" transform="rotate(60.599999999999994, 400, 400)" opacity="0.42"></path><path d="M420.09 276.09C428.05 278.84 435.68 282.57 442.89 287.1 450.07 291.77 456.8 297.09 462.99 302.88 469.11 308.62 474.62 314.73 479.45 321.1 484.15 327.3 488.11 333.74 491.25 340.32 494.24 346.72 496.4 353.31 497.69 360.05 498.86 366.65 499.19 373.46 498.7 380.46 498.21 387.38 497 394.56 495.1 401.97 493.4 409.35 491.17 417.01 488.47 424.89 486.16 432.77 483.59 440.49 480.86 447.97 478.58 455.42 476.09 462.57 473.44 469.29 471.17 475.91 468.64 482.01 465.83 487.44 461.81 494.9 451.91 505.07 445.82 507.44 439.24 508.32 423.26 504.74 413.87 500.65 407.42 497.82 400.43 494.42 392.97 490.59 385.5 487.29 377.93 483.91 370.37 480.58 362.83 477.91 355.33 475.27 347.99 472.66 340.7 470.64 333.61 468.51 326.83 466.2 320.14 464.29 313.8 462.02 307.94 459.34 299.63 455.31 286.3 444.38 281.61 437.29 278.99 432.33 277.2 426.68 276.35 420.36 275.74 414.03 276.08 407.05 277.43 399.47 279.01 391.88 281.49 384.06 284.76 376.14 288.16 368.24 292.29 360.26 297.02 352.32 301.81 344.43 307.15 336.62 312.94 329.04 318.72 321.56 324.93 314.37 331.46 307.62 337.96 301.08 344.78 295.08 351.84 289.79 358.87 284.83 366.15 280.69 373.61 277.52 381.05 274.79 388.69 273.12 396.46 272.61 404.23 272.58 412.13 273.72 420.09 276.09" stroke-dasharray="6 11" transform="rotate(64.64, 400, 400)" opacity="0.82"></path><path d="M417.73 286.81C424.86 289.32 431.63 292.7 438 296.79 444.34 301.01 450.24 305.84 455.62 311.11 460.95 316.37 465.72 322.01 469.86 327.91 473.91 333.7 477.31 339.74 479.99 345.93 482.57 351.99 484.43 358.23 485.54 364.59 486.59 370.85 486.92 377.28 486.54 383.84 486.18 390.34 485.2 397.03 483.62 403.85 482.19 410.66 480.28 417.63 477.92 424.72 475.86 431.81 473.53 438.67 471 445.22 468.81 451.75 466.41 457.93 463.82 463.66 460.26 471.86 452.17 485.04 447.46 489.67 442.54 493.16 430.66 495.47 423.6 494.29 418.75 493.14 413.41 491.24 407.62 488.65 401.83 486.2 395.58 483.25 388.93 479.87 382.28 476.91 375.55 473.82 368.84 470.7 362.16 468.1 355.52 465.46 349.05 462.79 342.62 460.6 336.37 458.29 330.42 455.82 321.78 452.48 306.68 444.44 300.5 439.44 295.18 434.03 288.21 420.45 286.8 412.24 286.34 406.57 286.71 400.33 287.98 393.56 289.44 386.79 291.71 379.83 294.67 372.78 297.75 365.76 301.49 358.67 305.77 351.65 310.11 344.68 314.97 337.81 320.22 331.18 325.5 324.64 331.16 318.4 337.12 312.59 343.07 306.97 349.31 301.86 355.77 297.4 362.21 293.22 368.86 289.77 375.67 287.2 382.46 284.97 389.42 283.68 396.45 283.4 403.49 283.5 410.61 284.62 417.73 286.81" stroke-dasharray="7 4" transform="rotate(68.68, 400, 400)" opacity="0.19"></path><path d="M414.69 297.54C427.27 302.26 438.44 309.84 447.76 319.25 456.91 328.72 464.01 339.54 468.65 351 473.05 362.15 475.03 374 474.49 386.11 474.09 398.08 471.68 410.57 467.36 423.15 464.02 435.72 459.55 447.14 454.35 456.83 450.11 466.27 444.78 473.59 438.42 478.18 432.49 482.21 425.06 483.37 416.22 481.51 407.44 479.56 397.04 475.3 385.32 469.14 373.59 464.28 361.73 458.81 350.44 453.17 339.3 448.99 328.95 444.11 320.12 438.38 311.7 433.31 305.05 426.66 300.86 418.35 297.29 410.12 296.35 399.95 298.53 388.02 301.34 376.09 306.9 363.6 314.46 351.39 322.26 339.37 331.85 327.93 342.53 318 353.24 308.7 365 301.43 377.2 297.05 389.41 293.81 402.11 293.81 414.69 297.54" stroke-dasharray="10 11" transform="rotate(72.72, 400, 400)" opacity="0.21"></path><path d="M411.08 308.26C422 312.43 431.59 319.06 439.52 327.31 447.33 335.69 453.36 345.35 457.3 355.62 461.1 365.74 462.89 376.47 462.56 387.37 462.38 398.18 460.46 409.3 456.81 420.25 453.89 431.21 449.84 440.91 445.04 448.94 440.94 456.8 435.85 462.72 429.88 466.31 424.26 469.55 417.42 470.41 409.48 468.8 401.61 467.21 392.45 463.67 382.27 458.42 372.09 454.15 361.9 449.12 352.28 443.78 342.78 439.53 334.03 434.6 326.64 428.96 319.56 423.89 314.05 417.57 310.65 410 307.73 402.52 307.07 393.53 309.08 383.16 311.6 372.8 316.47 362.11 323.09 351.77 329.93 341.6 338.35 332.06 347.75 323.92 357.2 316.29 367.57 310.46 378.3 307.11 389.05 304.63 400.17 304.88 411.08 308.26" stroke-dasharray="2 9" transform="rotate(76.76, 400, 400)" opacity="0.42"></path><path d="M407.05 318.99C416.32 322.59 424.4 328.26 431.04 335.32 437.61 342.54 442.67 350.92 446.01 359.87 449.28 368.76 450.89 378.21 450.75 387.73 450.77 397.22 449.28 406.87 446.26 416.21 443.77 425.54 440.18 433.64 435.86 440.19 432.04 446.64 427.31 451.39 421.84 454.2 416.65 456.82 410.47 457.5 403.46 456.18 396.51 454.95 388.58 452.08 379.91 447.69 371.23 444.02 362.66 439.53 354.65 434.61 346.73 430.48 339.51 425.69 333.48 420.31 327.68 415.37 323.23 409.47 320.56 402.66 318.24 395.95 317.82 388.09 319.64 379.26 321.83 370.43 326.02 361.49 331.68 352.99 337.53 344.61 344.75 336.89 352.8 330.42 360.93 324.35 369.84 319.82 379.04 317.37 388.27 315.54 397.78 315.98 407.05 318.99" stroke-dasharray="8 6" transform="rotate(80.80000000000001, 400, 400)" opacity="0.83"></path><path d="M402.74 329.71C410.39 332.73 417.03 337.43 422.47 343.29 427.88 349.3 432.05 356.32 434.84 363.83 437.61 371.36 439.06 379.36 439.08 387.39 439.24 395.42 438.13 403.52 435.71 411.24 433.64 418.96 430.57 425.55 426.8 430.79 421.26 437.87 406.94 444.37 398.19 443.66 392.21 442.77 385.52 440.53 378.32 436.97 371.11 433.89 364.1 430.01 357.64 425.65 351.23 421.82 345.46 417.36 340.7 412.43 336.1 407.8 332.62 402.45 330.6 396.47 328.83 390.57 328.6 383.87 330.19 376.55 332.05 369.22 335.54 361.97 340.23 355.2 345.08 348.53 351.06 342.5 357.75 337.56 364.5 332.9 371.91 329.52 379.55 327.83 387.22 326.57 395.1 327.11 402.74 329.71" stroke-dasharray="8 7" transform="rotate(84.84, 400, 400)" opacity="0.13"></path><path d="M398.33 340.44C410.43 345.52 419.32 355.65 423.87 367.62 428.45 379.74 429.09 393.37 425.16 405.63 422.1 417.88 415.55 426.25 407.23 429.73 399.4 433.14 389.06 432.04 377.56 426.24 366.05 421.67 355.59 414.1 348.3 405.3 341.42 397.28 338.27 386.86 340.74 375.16 343.93 363.46 352.11 352.71 362.64 345.37 373.41 338.72 386.23 336.43 398.33 340.44" stroke-dasharray="9 2" transform="rotate(88.88, 400, 400)" opacity="0.82"></path><path d="M393.99 351.16C402.96 354.96 409.62 362.45 413.15 371.35 416.72 380.39 417.41 390.59 414.6 399.7 412.28 408.81 407.14 415 400.6 417.63 394.33 420.31 386.29 419.71 377.66 415.52 369.03 412.01 361.44 405.96 356.33 398.89 351.42 392.24 349.31 383.96 351.29 375.19 353.69 366.41 359.76 358.79 367.55 353.87 375.51 349.32 385 347.99 393.99 351.16" stroke-dasharray="7 1" transform="rotate(92.92, 400, 400)" opacity="0.28"></path><path d="M389.87 361.89C401.73 367.15 407.8 381.74 404.05 393.79 401.15 405.83 390.15 410.41 378.62 404.79 367.09 400.36 359.23 388.35 361.84 376.63 365.22 364.89 378 357.74 389.87 361.89" stroke-dasharray="7 5" transform="rotate(96.96, 400, 400)" opacity="0.10"></path></g></svg>