<svg xmlns="http://www.w3.org/2000/svg" version="1.1" xmlns:xlink="http://www.w3.org/1999/xlink" xmlns:svgjs="http://svgjs.dev/svgjs" viewBox="0 0 800 800"><circle r="4.5" cx="191" cy="252" fill="hsl(133, 75%, 70%)" opacity="0.44"></circle><circle r="8" cx="558" cy="374" fill="hsl(151, 75%, 70%)" opacity="0.16"></circle><circle r="13" cx="676" cy="214" fill="hsl(101, 75%, 70%)" opacity="0.13"></circle><circle r="4.5" cx="75" cy="253" fill="hsl(57, 75%, 70%)" opacity="0.64"></circle><circle r="8.5" cx="258" cy="87" fill="hsl(120, 75%, 70%)" opacity="0.99"></circle><circle r="8" cx="175" cy="633" fill="hsl(119, 75%, 70%)" opacity="0.80"></circle><circle r="7" cx="175" cy="701" fill="hsl(106, 75%, 70%)" opacity="0.29"></circle><circle r="13.5" cx="311" cy="775" fill="hsl(272, 75%, 70%)" opacity="0.86"></circle><circle r="6.5" cx="73" cy="598" fill="hsl(57, 75%, 70%)" opacity="0.28"></circle><circle r="5.5" cx="114" cy="419" fill="hsl(68, 75%, 70%)" opacity="0.81"></circle><circle r="11" cx="360" cy="687" fill="hsl(310, 75%, 70%)" opacity="0.28"></circle><circle r="7" cx="50" cy="25" fill="hsl(112, 75%, 70%)" opacity="0.33"></circle><circle r="10" cx="372" cy="716" fill="hsl(315, 75%, 70%)" opacity="0.38"></circle><circle r="17.5" cx="508" cy="604" fill="hsl(231, 75%, 70%)" opacity="0.11"></circle><circle r="6" cx="631" cy="605" fill="hsl(83, 75%, 70%)" opacity="0.29"></circle><circle r="7.5" cx="732" cy="449" fill="hsl(155, 75%, 70%)" opacity="0.41"></circle><circle r="8.5" cx="523" cy="99" fill="hsl(141, 75%, 70%)" opacity="0.28"></circle><circle r="7" cx="214" cy="69" fill="hsl(82, 75%, 70%)" opacity="0.59"></circle><circle r="8.5" cx="727" cy="760" fill="hsl(155, 75%, 70%)" opacity="0.32"></circle><circle r="3.5" cx="121" cy="240" fill="hsl(68, 75%, 70%)" opacity="0.35"></circle><circle r="3" cx="645" cy="627" fill="hsl(82, 75%, 70%)" opacity="0.98"></circle><circle r="4.5" cx="605" cy="330" fill="hsl(93, 75%, 70%)" opacity="0.41"></circle><circle r="19" cx="452" cy="629" fill="hsl(296, 75%, 70%)" opacity="0.46"></circle><circle r="13" cx="346" cy="526" fill="hsl(302, 75%, 70%)" opacity="0.61"></circle><circle r="5.5" cx="638" cy="567" fill="hsl(82, 75%, 70%)" opacity="0.80"></circle><circle r="14" cx="568" cy="29" fill="hsl(169, 75%, 70%)" opacity="0.13"></circle><circle r="11.5" cx="332" cy="665" fill="hsl(294, 75%, 70%)" opacity="0.51"></circle><circle r="7.5" cx="182" cy="357" fill="hsl(119, 75%, 70%)" opacity="0.75"></circle><circle r="7" cx="141" cy="673" fill="hsl(84, 75%, 70%)" opacity="0.65"></circle><circle r="7.5" cx="94" cy="372" fill="hsl(59, 75%, 70%)" opacity="0.67"></circle><circle r="6.5" cx="670" cy="307" fill="hsl(92, 75%, 70%)" opacity="0.11"></circle><circle r="9.5" cx="608" cy="379" fill="hsl(93, 75%, 70%)" opacity="0.75"></circle><circle r="17.5" cx="277" cy="643" fill="hsl(246, 75%, 70%)" opacity="0.78"></circle><circle r="9" cx="480" cy="423" fill="hsl(268, 75%, 70%)" opacity="0.21"></circle><circle r="9" cx="209" cy="326" fill="hsl(149, 75%, 70%)" opacity="0.16"></circle><circle r="4.5" cx="107" cy="283" fill="hsl(63, 75%, 70%)" opacity="0.79"></circle><circle r="8.5" cx="444" cy="295" fill="hsl(307, 75%, 70%)" opacity="0.82"></circle><circle r="8.5" cx="520" cy="391" fill="hsl(211, 75%, 70%)" opacity="0.41"></circle><circle r="11.5" cx="712" cy="711" fill="hsl(125, 75%, 70%)" opacity="0.82"></circle><circle r="7" cx="14" cy="18" fill="hsl(145, 75%, 70%)" opacity="0.96"></circle><circle r="5.5" cx="664" cy="580" fill="hsl(92, 75%, 70%)" opacity="0.71"></circle><circle r="15" cx="325" cy="484" fill="hsl(284, 75%, 70%)" opacity="0.59"></circle><circle r="5.5" cx="790" cy="542" fill="hsl(241, 75%, 70%)" opacity="0.35"></circle><circle r="5.5" cx="133" cy="207" fill="hsl(75, 75%, 70%)" opacity="0.72"></circle><circle r="6" cx="64" cy="222" fill="hsl(57, 75%, 70%)" opacity="0.91"></circle><circle r="4.5" cx="100" cy="81" fill="hsl(18, 75%, 70%)" opacity="0.96"></circle><circle r="9.5" cx="383" cy="742" fill="hsl(319, 75%, 70%)" opacity="0.98"></circle><circle r="8.5" cx="785" cy="264" fill="hsl(225, 75%, 70%)" opacity="0.29"></circle><circle r="14" cx="350" cy="373" fill="hsl(310, 75%, 70%)" opacity="0.17"></circle><circle r="4.5" cx="692" cy="467" fill="hsl(112, 75%, 70%)" opacity="0.99"></circle><circle r="12" cx="700" cy="149" fill="hsl(174, 75%, 70%)" opacity="0.31"></circle><circle r="5" cx="183" cy="41" fill="hsl(49, 75%, 70%)" opacity="0.28"></circle><circle r="7.5" cx="714" cy="484" fill="hsl(139, 75%, 70%)" opacity="0.89"></circle><circle r="5.5" cx="102" cy="222" fill="hsl(63, 75%, 70%)" opacity="0.10"></circle><circle r="10" cx="234" cy="360" fill="hsl(182, 75%, 70%)" opacity="0.79"></circle><circle r="13" cx="371" cy="493" fill="hsl(315, 75%, 70%)" opacity="0.93"></circle><circle r="10" cx="30" cy="371" fill="hsl(64, 75%, 70%)" opacity="0.47"></circle><circle r="5.5" cx="566" cy="345" fill="hsl(133, 75%, 70%)" opacity="0.39"></circle><circle r="9" cx="130" cy="626" fill="hsl(75, 75%, 70%)" opacity="0.29"></circle><circle r="14" cx="306" cy="585" fill="hsl(272, 75%, 70%)" opacity="0.47"></circle><circle r="9" cx="444" cy="492" fill="hsl(307, 75%, 70%)" opacity="0.55"></circle><circle r="10.5" cx="230" cy="434" fill="hsl(182, 75%, 70%)" opacity="0.82"></circle><circle r="7.5" cx="174" cy="297" fill="hsl(106, 75%, 70%)" opacity="0.93"></circle><circle r="5" cx="128" cy="745" fill="hsl(75, 75%, 70%)" opacity="0.42"></circle><circle r="4.5" cx="663" cy="611" fill="hsl(92, 75%, 70%)" opacity="0.48"></circle><circle r="16.5" cx="428" cy="437" fill="hsl(314, 75%, 70%)" opacity="0.20"></circle><circle r="4.5" cx="159" cy="375" fill="hsl(94, 75%, 70%)" opacity="0.49"></circle><circle r="9" cx="780" cy="511" fill="hsl(225, 75%, 70%)" opacity="0.74"></circle><circle r="10" cx="288" cy="399" fill="hsl(259, 75%, 70%)" opacity="0.97"></circle><circle r="11.5" cx="488" cy="555" fill="hsl(251, 75%, 70%)" opacity="0.96"></circle><circle r="6.5" cx="164" cy="784" fill="hsl(106, 75%, 70%)" opacity="0.78"></circle><circle r="9.5" cx="673" cy="59" fill="hsl(216, 75%, 70%)" opacity="0.55"></circle><circle r="11" cx="724" cy="629" fill="hsl(139, 75%, 70%)" opacity="0.40"></circle><circle r="11.5" cx="352" cy="333" fill="hsl(310, 75%, 70%)" opacity="0.77"></circle><circle r="9" cx="495" cy="495" fill="hsl(251, 75%, 70%)" opacity="0.43"></circle><circle r="7" cx="580" cy="765" fill="hsl(117, 75%, 70%)" opacity="0.68"></circle><circle r="11.5" cx="780" cy="708" fill="hsl(225, 75%, 70%)" opacity="0.70"></circle><circle r="7.5" cx="228" cy="290" fill="hsl(182, 75%, 70%)" opacity="0.76"></circle><circle r="15.5" cx="361" cy="417" fill="hsl(310, 75%, 70%)" opacity="0.91"></circle><circle r="9" cx="402" cy="761" fill="hsl(322, 75%, 70%)" opacity="0.67"></circle><circle r="12" cx="782" cy="20" fill="hsl(296, 75%, 70%)" opacity="0.92"></circle><circle r="5" cx="604" cy="584" fill="hsl(93, 75%, 70%)" opacity="0.26"></circle><circle r="11.5" cx="436" cy="171" fill="hsl(283, 75%, 70%)" opacity="0.33"></circle><circle r="11" cx="256" cy="184" fill="hsl(214, 75%, 70%)" opacity="0.59"></circle><circle r="6" cx="15" cy="753" fill="hsl(68, 75%, 70%)" opacity="0.45"></circle><circle r="13.5" cx="407" cy="288" fill="hsl(322, 75%, 70%)" opacity="0.42"></circle><circle r="4.5" cx="588" cy="312" fill="hsl(103, 75%, 70%)" opacity="0.54"></circle><circle r="4.5" cx="182" cy="233" fill="hsl(119, 75%, 70%)" opacity="0.90"></circle><circle r="11" cx="464" cy="215" fill="hsl(283, 75%, 70%)" opacity="0.54"></circle><circle r="8.5" cx="469" cy="23" fill="hsl(90, 75%, 70%)" opacity="0.34"></circle><circle r="9" cx="471" cy="156" fill="hsl(237, 75%, 70%)" opacity="0.48"></circle><circle r="11" cx="633" cy="258" fill="hsl(83, 75%, 70%)" opacity="0.86"></circle><circle r="6.5" cx="473" cy="465" fill="hsl(283, 75%, 70%)" opacity="0.79"></circle><circle r="8" cx="147" cy="534" fill="hsl(84, 75%, 70%)" opacity="0.66"></circle><circle r="9.5" cx="217" cy="630" fill="hsl(165, 75%, 70%)" opacity="0.28"></circle><circle r="10" cx="190" cy="414" fill="hsl(133, 75%, 70%)" opacity="0.12"></circle><circle r="5" cx="151" cy="52" fill="hsl(38, 75%, 70%)" opacity="0.44"></circle><circle r="4.5" cx="277" cy="13" fill="hsl(49, 75%, 70%)" opacity="0.44"></circle><circle r="10.5" cx="343" cy="581" fill="hsl(302, 75%, 70%)" opacity="0.41"></circle><circle r="9.5" cx="786" cy="60" fill="hsl(310, 75%, 70%)" opacity="0.26"></circle><circle r="4" cx="657" cy="644" fill="hsl(86, 75%, 70%)" opacity="0.39"></circle><circle r="8" cx="576" cy="728" fill="hsl(117, 75%, 70%)" opacity="0.39"></circle><circle r="6" cx="75" cy="290" fill="hsl(57, 75%, 70%)" opacity="0.18"></circle><circle r="11" cx="484" cy="677" fill="hsl(268, 75%, 70%)" opacity="0.53"></circle><circle r="6" cx="755" cy="788" fill="hsl(190, 75%, 70%)" opacity="0.27"></circle><circle r="9" cx="635" cy="107" fill="hsl(159, 75%, 70%)" opacity="0.20"></circle><circle r="6" cx="690" cy="608" fill="hsl(112, 75%, 70%)" opacity="0.77"></circle><circle r="8.5" cx="455" cy="787" fill="hsl(296, 75%, 70%)" opacity="0.15"></circle><circle r="8" cx="723" cy="279" fill="hsl(139, 75%, 70%)" opacity="0.93"></circle><circle r="5" cx="122" cy="703" fill="hsl(68, 75%, 70%)" opacity="0.19"></circle><circle r="5" cx="13" cy="673" fill="hsl(68, 75%, 70%)" opacity="0.54"></circle><circle r="10" cx="536" cy="422" fill="hsl(191, 75%, 70%)" opacity="0.59"></circle><circle r="10.5" cx="290" cy="704" fill="hsl(259, 75%, 70%)" opacity="0.18"></circle><circle r="9" cx="305" cy="458" fill="hsl(272, 75%, 70%)" opacity="0.18"></circle><circle r="10" cx="517" cy="38" fill="hsl(130, 75%, 70%)" opacity="0.16"></circle><circle r="10.5" cx="506" cy="300" fill="hsl(231, 75%, 70%)" opacity="0.29"></circle><circle r="10" cx="768" cy="82" fill="hsl(301, 75%, 70%)" opacity="0.63"></circle><circle r="9.5" cx="470" cy="301" fill="hsl(283, 75%, 70%)" opacity="0.87"></circle><circle r="10.5" cx="204" cy="539" fill="hsl(149, 75%, 70%)" opacity="0.18"></circle><circle r="11.5" cx="275" cy="262" fill="hsl(231, 75%, 70%)" opacity="0.42"></circle><circle r="11.5" cx="776" cy="755" fill="hsl(225, 75%, 70%)" opacity="1.00"></circle><circle r="4.5" cx="98" cy="731" fill="hsl(59, 75%, 70%)" opacity="0.41"></circle><circle r="6.5" cx="142" cy="494" fill="hsl(84, 75%, 70%)" opacity="0.57"></circle><circle r="8.5" cx="573" cy="146" fill="hsl(136, 75%, 70%)" opacity="0.97"></circle><circle r="13.5" cx="378" cy="594" fill="hsl(319, 75%, 70%)" opacity="0.85"></circle><circle r="5.5" cx="80" cy="416" fill="hsl(57, 75%, 70%)" opacity="0.77"></circle><circle r="7" cx="683" cy="386" fill="hsl(101, 75%, 70%)" opacity="0.13"></circle><circle r="4" cx="71" cy="80" fill="hsl(29, 75%, 70%)" opacity="0.51"></circle><circle r="9.5" cx="613" cy="457" fill="hsl(86, 75%, 70%)" opacity="0.31"></circle><circle r="3.5" cx="125" cy="265" fill="hsl(75, 75%, 70%)" opacity="0.80"></circle><circle r="8.5" cx="114" cy="578" fill="hsl(68, 75%, 70%)" opacity="0.14"></circle><circle r="8" cx="20" cy="456" fill="hsl(68, 75%, 70%)" opacity="0.61"></circle><circle r="9" cx="513" cy="747" fill="hsl(211, 75%, 70%)" opacity="0.64"></circle><circle r="6" cx="692" cy="565" fill="hsl(112, 75%, 70%)" opacity="0.46"></circle><circle r="8.5" cx="321" cy="39" fill="hsl(72, 75%, 70%)" opacity="0.98"></circle><circle r="6.5" cx="628" cy="527" fill="hsl(83, 75%, 70%)" opacity="0.78"></circle><circle r="15" cx="367" cy="636" fill="hsl(315, 75%, 70%)" opacity="0.32"></circle><circle r="11.5" cx="411" cy="720" fill="hsl(322, 75%, 70%)" opacity="0.91"></circle><circle r="9" cx="558" cy="300" fill="hsl(151, 75%, 70%)" opacity="0.52"></circle><circle r="7.5" cx="533" cy="341" fill="hsl(191, 75%, 70%)" opacity="0.61"></circle><circle r="11" cx="340" cy="182" fill="hsl(295, 75%, 70%)" opacity="0.31"></circle><circle r="14.5" cx="304" cy="534" fill="hsl(272, 75%, 70%)" opacity="0.59"></circle><circle r="6" cx="79" cy="643" fill="hsl(57, 75%, 70%)" opacity="0.28"></circle><circle r="12" cx="305" cy="94" fill="hsl(157, 75%, 70%)" opacity="0.92"></circle><circle r="5.5" cx="134" cy="84" fill="hsl(24, 75%, 70%)" opacity="0.20"></circle><circle r="7" cx="635" cy="325" fill="hsl(83, 75%, 70%)" opacity="0.74"></circle><circle r="11.5" cx="313" cy="309" fill="hsl(284, 75%, 70%)" opacity="0.15"></circle><circle r="6" cx="19" cy="118" fill="hsl(54, 75%, 70%)" opacity="0.18"></circle><circle r="5.5" cx="50" cy="775" fill="hsl(60, 75%, 70%)" opacity="0.37"></circle><circle r="8.5" cx="666" cy="93" fill="hsl(195, 75%, 70%)" opacity="0.10"></circle><circle r="6.5" cx="142" cy="403" fill="hsl(84, 75%, 70%)" opacity="0.27"></circle><circle r="10" cx="434" cy="70" fill="hsl(105, 75%, 70%)" opacity="0.21"></circle><circle r="12" cx="250" cy="597" fill="hsl(199, 75%, 70%)" opacity="0.56"></circle><circle r="8.5" cx="726" cy="577" fill="hsl(155, 75%, 70%)" opacity="0.20"></circle><circle r="5.5" cx="31" cy="646" fill="hsl(64, 75%, 70%)" opacity="0.25"></circle><circle r="6.5" cx="123" cy="129" fill="hsl(29, 75%, 70%)" opacity="0.97"></circle><circle r="6.5" cx="704" cy="307" fill="hsl(125, 75%, 70%)" opacity="0.83"></circle><circle r="8.5" cx="151" cy="446" fill="hsl(94, 75%, 70%)" opacity="0.88"></circle><circle r="15" cx="450" cy="396" fill="hsl(307, 75%, 70%)" opacity="0.21"></circle><circle r="11.5" cx="378" cy="547" fill="hsl(319, 75%, 70%)" opacity="0.49"></circle><circle r="7" cx="765" cy="429" fill="hsl(207, 75%, 70%)" opacity="0.15"></circle><circle r="7" cx="269" cy="48" fill="hsl(76, 75%, 70%)" opacity="0.36"></circle><circle r="6" cx="362" cy="20" fill="hsl(35, 75%, 70%)" opacity="0.64"></circle><circle r="6.5" cx="608" cy="783" fill="hsl(93, 75%, 70%)" opacity="0.86"></circle><circle r="9" cx="247" cy="395" fill="hsl(199, 75%, 70%)" opacity="0.91"></circle><circle r="12.5" cx="619" cy="61" fill="hsl(184, 75%, 70%)" opacity="0.35"></circle><circle r="6" cx="116" cy="40" fill="hsl(35, 75%, 70%)" opacity="0.52"></circle><circle r="12" cx="413" cy="486" fill="hsl(319, 75%, 70%)" opacity="0.25"></circle><circle r="6" cx="165" cy="118" fill="hsl(65, 75%, 70%)" opacity="0.60"></circle><circle r="8" cx="59" cy="328" fill="hsl(58, 75%, 70%)" opacity="0.32"></circle><circle r="7.5" cx="649" cy="486" fill="hsl(82, 75%, 70%)" opacity="0.69"></circle><circle r="9.5" cx="563" cy="571" fill="hsl(133, 75%, 70%)" opacity="0.91"></circle><circle r="12" cx="520" cy="662" fill="hsl(211, 75%, 70%)" opacity="0.71"></circle><circle r="8.5" cx="71" cy="493" fill="hsl(57, 75%, 70%)" opacity="0.67"></circle><circle r="5" cx="118" cy="774" fill="hsl(68, 75%, 70%)" opacity="0.62"></circle><circle r="10" cx="562" cy="83" fill="hsl(143, 75%, 70%)" opacity="0.34"></circle><circle r="11.5" cx="228" cy="236" fill="hsl(182, 75%, 70%)" opacity="0.32"></circle><circle r="5.5" cx="37" cy="608" fill="hsl(64, 75%, 70%)" opacity="0.34"></circle><circle r="9.5" cx="196" cy="764" fill="hsl(133, 75%, 70%)" opacity="0.20"></circle><circle r="7.5" cx="479" cy="523" fill="hsl(268, 75%, 70%)" opacity="0.47"></circle><circle r="13" cx="340" cy="731" fill="hsl(302, 75%, 70%)" opacity="0.80"></circle><circle r="13.5" cx="779" cy="140" fill="hsl(283, 75%, 70%)" opacity="0.93"></circle><circle r="10" cx="417" cy="226" fill="hsl(319, 75%, 70%)" opacity="0.94"></circle><circle r="7.5" cx="110" cy="465" fill="hsl(63, 75%, 70%)" opacity="0.32"></circle><circle r="4.5" cx="19" cy="787" fill="hsl(68, 75%, 70%)" opacity="0.45"></circle><circle r="11" cx="218" cy="479" fill="hsl(165, 75%, 70%)" opacity="0.36"></circle><circle r="6.5" cx="676" cy="352" fill="hsl(101, 75%, 70%)" opacity="0.83"></circle><circle r="8" cx="186" cy="150" fill="hsl(95, 75%, 70%)" opacity="0.53"></circle><circle r="17" cx="383" cy="452" fill="hsl(319, 75%, 70%)" opacity="0.22"></circle><circle r="10" cx="330" cy="280" fill="hsl(294, 75%, 70%)" opacity="0.17"></circle><circle r="14" cx="456" cy="346" fill="hsl(296, 75%, 70%)" opacity="0.43"></circle><circle r="7.5" cx="406" cy="33" fill="hsl(53, 75%, 70%)" opacity="0.82"></circle><circle r="10" cx="513" cy="214" fill="hsl(211, 75%, 70%)" opacity="0.77"></circle><circle r="5.5" cx="144" cy="284" fill="hsl(84, 75%, 70%)" opacity="0.27"></circle><circle r="11.5" cx="261" cy="305" fill="hsl(215, 75%, 70%)" opacity="0.58"></circle><circle r="9" cx="597" cy="109" fill="hsl(144, 75%, 70%)" opacity="0.38"></circle><circle r="9" cx="482" cy="375" fill="hsl(268, 75%, 70%)" opacity="0.11"></circle><circle r="5.5" cx="69" cy="749" fill="hsl(57, 75%, 70%)" opacity="0.37"></circle><circle r="5" cx="147" cy="248" fill="hsl(84, 75%, 70%)" opacity="0.96"></circle><circle r="9.5" cx="644" cy="412" fill="hsl(82, 75%, 70%)" opacity="0.14"></circle><circle r="11.5" cx="430" cy="258" fill="hsl(314, 75%, 70%)" opacity="0.22"></circle><circle r="8" cx="508" cy="362" fill="hsl(231, 75%, 70%)" opacity="0.25"></circle><circle r="18.5" cx="424" cy="580" fill="hsl(319, 75%, 70%)" opacity="0.11"></circle><circle r="13.5" cx="738" cy="112" fill="hsl(266, 75%, 70%)" opacity="0.21"></circle><circle r="7" cx="605" cy="639" fill="hsl(93, 75%, 70%)" opacity="0.42"></circle><circle r="13.5" cx="474" cy="252" fill="hsl(283, 75%, 70%)" opacity="0.30"></circle><circle r="11.5" cx="365" cy="83" fill="hsl(128, 75%, 70%)" opacity="0.73"></circle><circle r="5.5" cx="178" cy="84" fill="hsl(59, 75%, 70%)" opacity="0.74"></circle><circle r="13.5" cx="316" cy="214" fill="hsl(284, 75%, 70%)" opacity="0.81"></circle><circle r="13" cx="225" cy="716" fill="hsl(165, 75%, 70%)" opacity="0.98"></circle><circle r="13.5" cx="381" cy="231" fill="hsl(319, 75%, 70%)" opacity="0.84"></circle><circle r="8" cx="722" cy="378" fill="hsl(139, 75%, 70%)" opacity="0.13"></circle><circle r="6.5" cx="201" cy="276" fill="hsl(149, 75%, 70%)" opacity="0.62"></circle><circle r="10" cx="23" cy="279" fill="hsl(68, 75%, 70%)" opacity="0.13"></circle><circle r="8" cx="27" cy="209" fill="hsl(64, 75%, 70%)" opacity="0.29"></circle><circle r="4.5" cx="144" cy="14" fill="hsl(49, 75%, 70%)" opacity="0.45"></circle><circle r="12.5" cx="261" cy="503" fill="hsl(215, 75%, 70%)" opacity="0.85"></circle><circle r="10" cx="363" cy="767" fill="hsl(315, 75%, 70%)" opacity="0.38"></circle><circle r="5" cx="97" cy="674" fill="hsl(59, 75%, 70%)" opacity="0.17"></circle><circle r="8" cx="207" cy="591" fill="hsl(149, 75%, 70%)" opacity="0.15"></circle><circle r="9" cx="544" cy="780" fill="hsl(170, 75%, 70%)" opacity="0.48"></circle><circle r="12.5" cx="776" cy="467" fill="hsl(225, 75%, 70%)" opacity="0.22"></circle><circle r="12.5" cx="377" cy="306" fill="hsl(319, 75%, 70%)" opacity="0.93"></circle><circle r="6.5" cx="631" cy="668" fill="hsl(83, 75%, 70%)" opacity="0.48"></circle><circle r="18" cx="409" cy="355" fill="hsl(322, 75%, 70%)" opacity="0.72"></circle><circle r="8.5" cx="344" cy="786" fill="hsl(302, 75%, 70%)" opacity="0.17"></circle><circle r="7.5" cx="182" cy="484" fill="hsl(119, 75%, 70%)" opacity="0.11"></circle><circle r="6" cx="587" cy="608" fill="hsl(117, 75%, 70%)" opacity="0.19"></circle><circle r="5.5" cx="233" cy="33" fill="hsl(60, 75%, 70%)" opacity="0.61"></circle><circle r="10" cx="222" cy="114" fill="hsl(126, 75%, 70%)" opacity="0.56"></circle><circle r="3.5" cx="104" cy="259" fill="hsl(63, 75%, 70%)" opacity="0.99"></circle><circle r="10" cx="632" cy="19" fill="hsl(210, 75%, 70%)" opacity="0.51"></circle><circle r="11.5" cx="443" cy="726" fill="hsl(307, 75%, 70%)" opacity="0.77"></circle><circle r="7" cx="33" cy="162" fill="hsl(47, 75%, 70%)" opacity="0.74"></circle><circle r="7" cx="98" cy="532" fill="hsl(59, 75%, 70%)" opacity="0.12"></circle><circle r="3.5" cx="9" cy="610" fill="hsl(74, 75%, 70%)" opacity="0.34"></circle><circle r="4.5" cx="91" cy="787" fill="hsl(59, 75%, 70%)" opacity="0.22"></circle><circle r="10.5" cx="701" cy="94" fill="hsl(231, 75%, 70%)" opacity="0.40"></circle><circle r="10.5" cx="452" cy="758" fill="hsl(296, 75%, 70%)" opacity="0.43"></circle><circle r="7" cx="383" cy="790" fill="hsl(319, 75%, 70%)" opacity="0.93"></circle><circle r="12" cx="479" cy="721" fill="hsl(268, 75%, 70%)" opacity="0.25"></circle><circle r="10" cx="201" cy="194" fill="hsl(149, 75%, 70%)" opacity="0.56"></circle><circle r="6" cx="19" cy="712" fill="hsl(68, 75%, 70%)" opacity="0.80"></circle><circle r="8" cx="659" cy="142" fill="hsl(140, 75%, 70%)" opacity="0.36"></circle><circle r="6.5" cx="466" cy="489" fill="hsl(283, 75%, 70%)" opacity="0.25"></circle><circle r="15.5" cx="440" cy="681" fill="hsl(307, 75%, 70%)" opacity="0.51"></circle><circle r="10.5" cx="582" cy="681" fill="hsl(117, 75%, 70%)" opacity="0.45"></circle><circle r="8.5" cx="687" cy="764" fill="hsl(101, 75%, 70%)" opacity="0.89"></circle><circle r="11.5" cx="276" cy="222" fill="hsl(246, 75%, 70%)" opacity="0.77"></circle><circle r="7" cx="547" cy="124" fill="hsl(146, 75%, 70%)" opacity="0.66"></circle><circle r="9" cx="533" cy="156" fill="hsl(171, 75%, 70%)" opacity="0.26"></circle><circle r="9" cx="764" cy="399" fill="hsl(207, 75%, 70%)" opacity="0.50"></circle><circle r="8" cx="94" cy="176" fill="hsl(51, 75%, 70%)" opacity="0.33"></circle><circle r="15" cx="747" cy="190" fill="hsl(172, 75%, 70%)" opacity="0.74"></circle><circle r="11" cx="373" cy="187" fill="hsl(305, 75%, 70%)" opacity="0.32"></circle><circle r="9.5" cx="168" cy="576" fill="hsl(106, 75%, 70%)" opacity="0.27"></circle><circle r="10" cx="416" cy="784" fill="hsl(319, 75%, 70%)" opacity="0.90"></circle><circle r="6.5" cx="145" cy="333" fill="hsl(84, 75%, 70%)" opacity="0.53"></circle><circle r="6" cx="55" cy="676" fill="hsl(58, 75%, 70%)" opacity="0.98"></circle><circle r="7" cx="489" cy="447" fill="hsl(251, 75%, 70%)" opacity="0.59"></circle><circle r="5" cx="40" cy="88" fill="hsl(41, 75%, 70%)" opacity="0.10"></circle><circle r="7.5" cx="312" cy="686" fill="hsl(272, 75%, 70%)" opacity="0.64"></circle><circle r="5.5" cx="669" cy="514" fill="hsl(92, 75%, 70%)" opacity="0.27"></circle><circle r="8.5" cx="590" cy="196" fill="hsl(103, 75%, 70%)" opacity="0.76"></circle><circle r="13.5" cx="351" cy="253" fill="hsl(310, 75%, 70%)" opacity="0.69"></circle><circle r="9.5" cx="743" cy="511" fill="hsl(172, 75%, 70%)" opacity="0.70"></circle><circle r="15.5" cx="291" cy="347" fill="hsl(259, 75%, 70%)" opacity="0.47"></circle><circle r="13" cx="754" cy="672" fill="hsl(190, 75%, 70%)" opacity="0.21"></circle><circle r="10" cx="485" cy="84" fill="hsl(130, 75%, 70%)" opacity="0.34"></circle><circle r="11" cx="750" cy="247" fill="hsl(190, 75%, 70%)" opacity="0.66"></circle><circle r="8.5" cx="229" cy="161" fill="hsl(171, 75%, 70%)" opacity="0.26"></circle><circle r="12.5" cx="690" cy="22" fill="hsl(240, 75%, 70%)" opacity="0.39"></circle><circle r="8" cx="706" cy="528" fill="hsl(125, 75%, 70%)" opacity="0.56"></circle><circle r="14" cx="345" cy="130" fill="hsl(229, 75%, 70%)" opacity="0.62"></circle><circle r="11" cx="407" cy="125" fill="hsl(225, 75%, 70%)" opacity="0.41"></circle><circle r="10" cx="782" cy="352" fill="hsl(225, 75%, 70%)" opacity="0.71"></circle><circle r="6.5" cx="21" cy="57" fill="hsl(97, 75%, 70%)" opacity="0.98"></circle><circle r="10.5" cx="743" cy="338" fill="hsl(172, 75%, 70%)" opacity="0.24"></circle><circle r="11.5" cx="521" cy="261" fill="hsl(211, 75%, 70%)" opacity="0.88"></circle><circle r="8" cx="646" cy="766" fill="hsl(82, 75%, 70%)" opacity="0.49"></circle><circle r="7" cx="145" cy="172" fill="hsl(69, 75%, 70%)" opacity="0.38"></circle><circle r="8" cx="43" cy="536" fill="hsl(60, 75%, 70%)" opacity="0.89"></circle><circle r="11.5" cx="533" cy="543" fill="hsl(191, 75%, 70%)" opacity="0.20"></circle><circle r="12" cx="767" cy="566" fill="hsl(207, 75%, 70%)" opacity="0.29"></circle><circle r="11.5" cx="745" cy="23" fill="hsl(271, 75%, 70%)" opacity="0.12"></circle><circle r="10" cx="560" cy="500" fill="hsl(151, 75%, 70%)" opacity="0.46"></circle><circle r="8.5" cx="422" cy="199" fill="hsl(319, 75%, 70%)" opacity="0.57"></circle><circle r="9" cx="633" cy="714" fill="hsl(83, 75%, 70%)" opacity="0.59"></circle><circle r="7.5" cx="599" cy="506" fill="hsl(103, 75%, 70%)" opacity="0.44"></circle><circle r="5" cx="663" cy="545" fill="hsl(92, 75%, 70%)" opacity="0.19"></circle><circle r="5.5" cx="58" cy="439" fill="hsl(58, 75%, 70%)" opacity="0.11"></circle><circle r="10" cx="305" cy="425" fill="hsl(272, 75%, 70%)" opacity="0.14"></circle><circle r="13" cx="253" cy="550" fill="hsl(215, 75%, 70%)" opacity="0.24"></circle><circle r="7.5" cx="477" cy="189" fill="hsl(268, 75%, 70%)" opacity="0.46"></circle><circle r="8" cx="500" cy="333" fill="hsl(231, 75%, 70%)" opacity="0.17"></circle><circle r="5.5" cx="130" cy="365" fill="hsl(75, 75%, 70%)" opacity="0.84"></circle><circle r="5" cx="16" cy="558" fill="hsl(68, 75%, 70%)" opacity="0.64"></circle><circle r="7" cx="158" cy="734" fill="hsl(94, 75%, 70%)" opacity="0.73"></circle><circle r="12.5" cx="778" cy="623" fill="hsl(225, 75%, 70%)" opacity="0.34"></circle><circle r="4.5" cx="84" cy="706" fill="hsl(57, 75%, 70%)" opacity="0.81"></circle><circle r="6.5" cx="671" cy="447" fill="hsl(92, 75%, 70%)" opacity="0.86"></circle><circle r="6" cx="51" cy="716" fill="hsl(58, 75%, 70%)" opacity="0.65"></circle><circle r="8.5" cx="681" cy="674" fill="hsl(101, 75%, 70%)" opacity="0.76"></circle><circle r="13" cx="402" cy="524" fill="hsl(322, 75%, 70%)" opacity="0.53"></circle><circle r="7.5" cx="703" cy="420" fill="hsl(125, 75%, 70%)" opacity="0.73"></circle><circle r="12" cx="725" cy="57" fill="hsl(256, 75%, 70%)" opacity="0.74"></circle><circle r="11" cx="263" cy="458" fill="hsl(231, 75%, 70%)" opacity="0.74"></circle><circle r="13" cx="279" cy="741" fill="hsl(246, 75%, 70%)" opacity="0.83"></circle><circle r="9" cx="578" cy="427" fill="hsl(117, 75%, 70%)" opacity="0.30"></circle><circle r="6.5" cx="76" cy="130" fill="hsl(22, 75%, 70%)" opacity="0.14"></circle><circle r="9.5" cx="204" cy="671" fill="hsl(149, 75%, 70%)" opacity="0.47"></circle><circle r="12.5" cx="244" cy="776" fill="hsl(199, 75%, 70%)" opacity="0.57"></circle><circle r="6" cx="86" cy="24" fill="hsl(74, 75%, 70%)" opacity="0.10"></circle><circle r="7" cx="526" cy="720" fill="hsl(191, 75%, 70%)" opacity="0.34"></circle><circle r="5.5" cx="163" cy="215" fill="hsl(106, 75%, 70%)" opacity="0.45"></circle><circle r="10.5" cx="389" cy="159" fill="hsl(273, 75%, 70%)" opacity="0.81"></circle><circle r="12" cx="446" cy="117" fill="hsl(190, 75%, 70%)" opacity="0.28"></circle><circle r="8.5" cx="549" cy="204" fill="hsl(170, 75%, 70%)" opacity="0.92"></circle><circle r="6" cx="604" cy="553" fill="hsl(93, 75%, 70%)" opacity="0.44"></circle><circle r="13" cx="442" cy="533" fill="hsl(307, 75%, 70%)" opacity="0.80"></circle><circle r="10.5" cx="557" cy="632" fill="hsl(151, 75%, 70%)" opacity="0.37"></circle><circle r="8.5" cx="508" cy="180" fill="hsl(222, 75%, 70%)" opacity="0.91"></circle><circle r="11.5" cx="570" cy="249" fill="hsl(133, 75%, 70%)" opacity="0.82"></circle><circle r="11" cx="528" cy="470" fill="hsl(191, 75%, 70%)" opacity="0.43"></circle><circle r="8" cx="542" cy="693" fill="hsl(170, 75%, 70%)" opacity="0.72"></circle><circle r="4" cx="199" cy="13" fill="hsl(52, 75%, 70%)" opacity="0.37"></circle><circle r="6" cx="114" cy="319" fill="hsl(68, 75%, 70%)" opacity="0.60"></circle><circle r="14" cx="397" cy="677" fill="hsl(322, 75%, 70%)" opacity="0.66"></circle><circle r="10" cx="493" cy="132" fill="hsl(184, 75%, 70%)" opacity="0.56"></circle><circle r="13.5" cx="298" cy="163" fill="hsl(251, 75%, 70%)" opacity="0.14"></circle><circle r="9" cx="622" cy="164" fill="hsl(105, 75%, 70%)" opacity="0.33"></circle><circle r="10.5" cx="269" cy="130" fill="hsl(194, 75%, 70%)" opacity="0.37"></circle><circle r="11.5" cx="498" cy="780" fill="hsl(251, 75%, 70%)" opacity="0.75"></circle></svg>