<svg xmlns="http://www.w3.org/2000/svg" version="1.1" xmlns:xlink="http://www.w3.org/1999/xlink" xmlns:svgjs="http://svgjs.dev/svgjs" viewBox="0 0 800 800"><defs><linearGradient x1="50%" y1="0%" x2="50%" y2="100%" id="ccchaos-grad"><stop stop-color="hsl(206, 75%, 49%)" stop-opacity="1" offset="0%"></stop><stop stop-color="hsl(331, 90%, 56%)" stop-opacity="1" offset="100%"></stop></linearGradient></defs><g stroke-width="2" stroke="url(#ccchaos-grad)" fill="none" stroke-linecap="round"><path d="M388.22 111.6C397.82 109.4 407.52 107.83 417.33 106.91 427.17 106.19 437.14 106.18 447.23 106.9 457.37 107.89 467.67 109.64 478.12 112.1 488.65 114.87 499.35 118.35 510.18 122.5 521.09 126.93 532.13 131.99 543.23 137.62 554.34 143.47 565.43 149.83 576.4 156.65 587.22 163.6 597.76 170.95 607.86 178.65 617.56 186.39 626.61 194.43 634.81 202.71 642.33 210.99 648.79 219.47 654.03 228.12 658.39 236.73 661.43 245.49 663.08 254.38 663.89 263.21 663.43 272.16 661.8 281.23 659.73 290.23 656.88 299.36 653.48 308.6 650.38 317.78 647.32 327.1 644.61 336.54 643.03 345.94 642.33 355.49 642.72 365.18 644.79 374.84 648.14 384.66 652.74 394.62 658.87 404.58 665.93 414.68 673.58 424.93 681.85 435.17 689.72 445.3 696.78 455.3 703.24 465.29 708.15 475.13 711.29 484.78 713.02 494.4 712.68 503.81 710.3 512.96 706.39 522.04 700.63 530.82 693.25 539.24 684.79 547.56 675.18 555.47 664.74 562.91 653.94 570.21 642.8 577 631.58 583.22 620.63 589.26 609.93 594.7 599.64 599.52 589.97 604.14 580.81 608.14 572.18 611.5 564.24 614.71 556.75 617.33 549.65 619.39 543.12 621.41 536.81 622.98 530.62 624.14 524.8 625.45 518.93 626.51 512.92 627.4 507.1 628.67 501 629.94 494.59 631.3 488.22 633.25 481.45 635.44 474.27 637.91 467.07 641.12 459.42 644.67 451.32 648.57 443.19 653.19 434.62 658.1 425.62 663.21 416.61 668.85 407.18 674.5 397.37 680.01 387.56 685.67 377.62 690.77 367.61 695.17 357.63 699.31 347.6 702.5 337.57 704.68 327.6 706.29 317.66 706.74 307.81 706.03 298.05 704.62 288.41 702.04 278.97 698.35 269.65 693.99 260.56 688.62 251.77 682.33 243.15 675.54 234.87 667.98 226.99 659.77 219.33 651.26 212.1 642.27 205.35 632.9 198.83 623.41 192.8 613.68 187.29 603.8 181.96 593.94 177.13 584.01 172.79 574.06 168.54 564.22 164.71 554.4 161.3 544.63 157.83 535 154.68 525.41 151.82 515.88 148.77 506.48 145.91 497.1 143.23 487.75 140.25 478.5 137.39 469.25 134.67 459.98 131.62 450.77 128.71 441.52 125.97 432.23 122.98 422.97 120.24 413.63 117.81 404.24 115.3 394.86 113.22 385.4 111.66 375.89 110.22 366.37 109.46 357.02 109.41 347.86 109.64 338.7 110.63 329.73 112.38 320.99 114.47 312.26 117.31 303.77 120.85 295.55 124.68 287.35 129.15 279.44 134.18 271.84 139.37 264.28 145.03 257.05 151.08 250.17 157.13 243.32 163.46 236.83 170.01 230.72 176.41 224.64 182.96 218.92 189.62 213.58 196.04 208.23 202.54 203.24 209.11 198.6 215.41 193.9 221.8 189.51 228.29 185.44 234.54 181.23 240.92 177.29 247.46 173.59 253.82 169.69 260.39 165.99 267.18 162.47 273.85 158.69 280.79 155.05 288 151.56 295.15 147.78 302.6 144.13 310.36 140.63 318.07 136.84 326.11 133.22 334.46 129.8 342.79 126.18 351.43 122.81 360.4 119.75 369.35 116.61 378.62 113.87 388.21 111.6" stroke-dasharray="5 2" transform="rotate(0, 400, 400)" opacity="0.45"></path><path d="M393.33 122.53C402.67 120.35 412.15 118.78 421.74 117.83 431.36 117.05 441.12 116.97 451.01 117.57 460.94 118.43 471.03 120 481.24 122.26 491.5 124.8 501.9 128.04 512.38 131.91 522.9 136.05 533.47 140.81 544.02 146.12 554.52 151.64 564.91 157.68 575.09 164.17 585.05 170.8 594.65 177.83 603.72 185.21 612.37 192.66 620.3 200.41 627.37 208.41 633.79 216.43 639.16 224.66 643.39 233.08 646.83 241.46 649.07 250.01 650.07 258.69 650.39 267.33 649.62 276.1 647.86 284.97 645.84 293.79 643.19 302.74 640.16 311.78 637.52 320.78 635 329.89 632.87 339.11 631.84 348.3 631.63 357.62 632.44 367.04 634.76 376.44 638.24 385.97 642.82 395.61 648.77 405.24 655.51 414.99 662.77 424.84 670.59 434.68 678.04 444.39 684.75 453.93 690.94 463.47 695.75 472.82 698.95 481.95 700.92 491.06 701 499.93 699.21 508.51 696.02 517.03 691.08 525.23 684.58 533.07 677.04 540.8 668.32 548.13 658.71 555 648.64 561.73 638.11 567.97 627.37 573.68 616.74 579.22 606.21 584.21 595.94 588.63 586.14 592.88 576.73 596.57 567.76 599.69 559.38 602.71 551.41 605.21 543.81 607.21 536.73 609.23 529.91 610.85 523.27 612.14 516.99 613.61 510.75 614.87 504.46 616.01 498.38 617.52 492.13 619.06 485.65 620.68 479.27 622.86 472.57 625.26 465.53 627.9 458.51 631.22 451.11 634.84 443.33 638.75 435.54 643.3 427.35 648.09 418.78 653.03 410.19 658.44 401.23 663.84 391.92 669.08 382.61 674.45 373.19 679.3 363.72 683.49 354.26 687.45 344.78 690.55 335.32 692.7 325.9 694.35 316.54 694.94 307.29 694.45 298.12 693.33 289.1 691.13 280.28 687.88 271.59 684.03 263.14 679.2 254.99 673.5 247.01 667.32 239.38 660.37 232.14 652.79 225.09 644.89 218.46 636.48 212.3 627.67 206.32 618.71 200.81 609.47 195.78 600.03 190.9 590.57 186.46 581 182.47 571.37 178.53 561.81 174.97 552.24 171.77 542.68 168.48 533.23 165.47 523.81 162.71 514.43 159.74 505.15 156.93 495.91 154.28 486.69 151.32 477.57 148.47 468.45 145.73 459.34 142.68 450.28 139.75 441.21 136.99 432.13 133.99 423.07 131.22 413.98 128.76 404.86 126.21 395.75 124.09 386.6 122.47 377.43 120.96 368.26 120.12 359.28 119.97 350.51 120.09 341.74 120.96 333.18 122.56 324.86 124.5 316.54 127.17 308.48 130.54 300.69 134.2 292.91 138.49 285.42 143.35 278.24 148.39 271.08 153.89 264.24 159.8 257.74 165.74 251.25 171.98 245.11 178.45 239.32 184.81 233.53 191.34 228.09 197.99 222.99 204.44 217.87 210.97 213.07 217.57 208.6 223.93 204.05 230.37 199.78 236.89 195.79 243.18 191.66 249.58 187.77 256.11 184.1 262.45 180.23 268.97 176.53 275.68 173.01 282.25 169.24 289.06 165.6 296.12 162.1 303.08 158.33 310.33 154.69 317.85 151.19 325.33 147.44 333.11 143.85 341.19 140.47 349.24 136.89 357.61 133.57 366.3 130.56 374.97 127.47 383.98 124.77 393.32 122.54" stroke-dasharray="3 7" transform="rotate(4.04, 400, 400)" opacity="0.56"></path><path d="M398.86 133.46C407.94 131.31 417.17 129.74 426.51 128.75 435.88 127.94 445.38 127.78 455 128.26 464.65 128.99 474.43 130.4 484.3 132.46 494.2 134.79 504.19 137.77 514.2 141.37 524.2 145.23 534.19 149.67 544.08 154.66 553.87 159.86 563.47 165.56 572.77 171.7 581.82 178 590.43 184.69 598.46 191.73 606.05 198.86 612.91 206.3 618.9 213.99 624.29 221.72 628.69 229.67 632.02 237.81 634.68 245.94 636.25 254.25 636.73 262.68 636.7 271.09 635.74 279.63 633.96 288.28 632.07 296.89 629.7 305.62 627.07 314.43 624.91 323.21 622.92 332.1 621.34 341.07 620.82 350.02 621.08 359.07 622.24 368.21 624.8 377.33 628.36 386.55 632.9 395.85 638.65 405.15 645.09 414.53 651.96 423.97 659.35 433.41 666.38 442.69 672.73 451.77 678.65 460.84 683.33 469.71 686.58 478.34 688.73 486.94 689.18 495.28 687.92 503.31 685.39 511.3 681.22 518.95 675.57 526.22 668.92 533.41 661.09 540.2 652.33 546.54 643.05 552.76 633.21 558.51 623.04 563.76 612.85 568.87 602.62 573.47 592.52 577.54 582.75 581.5 573.25 584.94 564.09 587.88 555.41 590.75 547.08 593.18 539.09 595.17 531.57 597.22 524.3 598.93 517.24 600.36 510.54 602 503.93 603.47 497.34 604.84 490.97 606.59 484.52 608.37 477.93 610.23 471.45 612.62 464.75 615.2 457.79 617.99 450.87 621.39 443.65 625.05 436.12 628.95 428.59 633.42 420.72 638.08 412.53 642.85 404.33 648.03 395.8 653.17 386.98 658.14 378.15 663.25 369.24 667.84 360.3 671.82 351.38 675.61 342.45 678.6 333.56 680.71 324.72 682.39 315.96 683.09 307.32 682.8 298.76 681.95 290.37 680.09 282.19 677.26 274.13 673.87 266.33 669.57 258.83 664.42 251.48 658.82 244.48 652.49 237.86 645.51 231.4 638.22 225.35 630.41 219.74 622.18 214.28 613.77 209.25 605.05 204.66 596.1 200.18 587.1 196.09 577.94 192.41 568.68 188.74 559.46 185.4 550.19 182.37 540.91 179.24 531.71 176.33 522.5 173.64 513.33 170.73 504.24 167.95 495.18 165.3 486.14 162.36 477.18 159.5 468.24 156.75 459.32 153.69 450.45 150.74 441.58 147.96 432.71 144.95 423.88 142.16 415.04 139.67 406.2 137.11 397.37 134.94 388.52 133.27 379.69 131.71 370.85 130.8 362.23 130.55 353.83 130.56 345.43 131.3 337.26 132.76 329.33 134.54 321.41 137.04 313.74 140.22 306.35 143.69 298.96 147.79 291.86 152.45 285.06 157.3 278.27 162.64 271.78 168.38 265.62 174.17 259.46 180.29 253.63 186.66 248.12 192.95 242.6 199.43 237.4 206.05 232.52 212.49 227.59 219.04 222.96 225.66 218.62 232.07 214.19 238.55 210.02 245.11 206.1 251.45 202.04 257.89 198.18 264.43 194.53 270.79 190.68 277.3 187 283.96 183.47 290.49 179.7 297.22 176.07 304.16 172.57 311.01 168.81 318.1 165.18 325.45 161.7 332.74 157.99 340.32 154.44 348.18 151.1 356 147.58 364.13 144.32 372.58 141.36 381 138.33 389.76 135.67 398.85 133.47" stroke-dasharray="6 3" transform="rotate(8.08, 400, 400)" opacity="0.21"></path><path d="M404.45 144.39C413.28 142.27 422.23 140.7 431.28 139.7 440.36 138.85 449.55 138.61 458.83 139 468.13 139.6 477.52 140.84 486.96 142.71 496.4 144.83 505.87 147.57 515.31 150.89 524.71 154.47 534.02 158.6 543.17 163.26 552.17 168.13 560.92 173.48 569.29 179.27 577.4 185.22 585.01 191.56 592.02 198.25 598.6 205.03 604.45 212.13 609.45 219.49 613.91 226.9 617.45 234.54 620.01 242.37 622.01 250.22 623.06 258.24 623.16 266.39 622.89 274.54 621.85 282.82 620.16 291.21 618.46 299.57 616.42 308.04 614.23 316.6 612.54 325.13 611.08 333.76 610.03 342.45 609.98 351.14 610.65 359.9 612.14 368.73 614.88 377.55 618.51 386.44 622.98 395.38 628.53 404.33 634.67 413.32 641.16 422.35 648.11 431.38 654.73 440.21 660.74 448.84 666.38 457.45 670.92 465.84 674.16 473.97 676.46 482.08 677.23 489.91 676.43 497.42 674.51 504.89 671.06 512.02 666.21 518.78 660.41 525.47 653.46 531.76 645.56 537.61 637.1 543.38 628.01 548.69 618.49 553.54 608.84 558.28 599.05 562.56 589.25 566.34 579.65 570.06 570.21 573.31 561.01 576.11 552.18 578.89 543.64 581.28 535.38 583.3 527.52 585.41 519.9 587.23 512.5 588.82 505.43 590.63 498.48 592.3 491.61 593.9 484.96 595.87 478.29 597.87 471.55 599.95 464.95 602.52 458.2 605.25 451.27 608.17 444.4 611.63 437.3 615.3 429.96 619.17 422.64 623.55 415.05 628.07 407.2 632.65 399.34 637.61 391.22 642.5 382.84 647.21 374.47 652.04 366.05 656.39 357.63 660.17 349.24 663.78 340.86 666.65 332.55 668.72 324.29 670.41 316.12 671.2 308.1 671.08 300.16 670.47 292.39 668.92 284.85 666.47 277.42 663.52 270.24 659.7 263.38 655.1 256.65 650.06 250.24 644.31 244.22 637.94 238.32 631.25 232.81 624.04 227.71 616.39 222.71 608.56 218.12 600.39 213.92 591.95 209.79 583.44 206.01 574.74 202.59 565.9 199.14 557.08 195.98 548.16 193.1 539.21 190.07 530.31 187.24 521.39 184.6 512.48 181.72 503.64 178.95 494.8 176.3 485.99 173.35 477.24 170.48 468.51 167.7 459.81 164.63 451.16 161.68 442.51 158.88 433.9 155.86 425.31 153.07 416.72 150.56 408.17 147.98 399.62 145.79 391.08 144.08 382.58 142.48 374.08 141.49 365.8 141.15 357.75 141.07 349.71 141.68 341.9 142.98 334.35 144.6 326.79 146.92 319.5 149.9 312.47 153.17 305.45 157.05 298.7 161.5 292.25 166.15 285.79 171.28 279.63 176.82 273.78 182.45 267.91 188.41 262.34 194.64 257.09 200.84 251.8 207.23 246.81 213.78 242.1 220.2 237.35 226.73 232.85 233.35 228.63 239.79 224.3 246.3 220.21 252.88 216.35 259.27 212.34 265.75 208.51 272.32 204.88 278.71 201.05 285.22 197.37 291.87 193.84 298.39 190.08 305.07 186.45 311.94 182.95 318.71 179.22 325.69 175.61 332.91 172.16 340.06 168.49 347.47 164.99 355.14 161.69 362.77 158.24 370.7 155.04 378.91 152.14 387.11 149.17 395.61 146.57 404.44 144.4" stroke-dasharray="4 3" transform="rotate(12.12, 400, 400)" opacity="0.07"></path><path d="M409.77 155.33C418.32 153.24 426.96 151.68 435.69 150.66 444.43 149.77 453.25 149.48 462.13 149.76 471.02 150.24 479.94 151.33 488.87 153.01 497.79 154.92 506.67 157.42 515.46 160.48 524.18 163.77 532.75 167.6 541.09 171.93 549.27 176.46 557.13 181.47 564.58 186.89 571.75 192.48 578.4 198.46 584.43 204.77 590.06 211.2 594.98 217.94 599.09 224.94 602.74 232 605.55 239.3 607.47 246.8 608.95 254.32 609.61 262.03 609.46 269.87 609.07 277.72 608.05 285.71 606.51 293.79 605.07 301.88 603.4 310.06 601.65 318.32 600.44 326.57 599.48 334.91 598.93 343.3 599.32 351.69 600.36 360.14 602.12 368.63 605.02 377.13 608.68 385.67 613.06 394.25 618.4 402.82 624.23 411.42 630.35 420.03 636.89 428.63 643.11 437.03 648.77 445.2 654.13 453.36 658.5 461.28 661.72 468.93 664.13 476.56 665.16 483.9 664.78 490.92 663.39 497.91 660.6 504.56 656.51 510.84 651.52 517.06 645.42 522.9 638.37 528.33 630.75 533.69 622.44 538.63 613.64 543.13 604.63 547.56 595.36 551.56 585.99 555.12 576.7 558.64 567.47 561.75 558.38 564.47 549.55 567.2 540.93 569.59 532.54 571.66 524.47 573.84 516.62 575.79 508.97 577.54 501.61 579.52 494.39 581.39 487.28 583.21 480.38 585.37 473.51 587.57 466.63 589.84 459.89 592.56 453.07 595.42 446.15 598.43 439.29 601.93 432.28 605.6 425.1 609.41 417.94 613.68 410.58 618.05 403.03 622.45 395.48 627.18 387.72 631.82 379.77 636.28 371.82 640.85 363.88 644.95 355.97 648.53 348.07 651.96 340.23 654.7 332.49 656.72 324.79 658.41 317.21 659.27 309.79 659.3 302.44 658.9 295.28 657.64 288.36 655.54 281.53 652.99 274.96 649.63 268.7 645.52 262.54 641.02 256.7 635.84 251.22 630.05 245.84 623.96 240.82 617.34 236.17 610.29 231.6 603.04 227.38 595.43 223.53 587.53 219.69 579.54 216.17 571.33 212.97 562.97 209.69 554.57 206.67 546.07 203.89 537.5 200.94 528.96 198.17 520.37 195.54 511.77 192.67 503.22 189.91 494.66 187.23 486.13 184.27 477.64 181.39 469.16 178.59 460.72 175.51 452.31 172.55 443.93 169.74 435.58 166.72 427.25 163.93 418.94 161.41 410.68 158.83 402.42 156.63 394.2 154.88 386.02 153.25 377.84 152.21 369.9 151.78 362.2 151.59 354.5 152.08 347.03 153.23 339.83 154.69 332.62 156.82 325.67 159.58 318.98 162.64 312.29 166.3 305.87 170.5 299.73 174.93 293.58 179.83 287.7 185.15 282.12 190.58 276.51 196.36 271.19 202.41 266.15 208.47 261.06 214.74 256.25 221.19 251.7 227.54 247.09 234.03 242.71 240.61 238.58 247.04 234.35 253.56 230.32 260.15 226.5 266.57 222.53 273.07 218.74 279.66 215.11 286.08 211.3 292.61 207.63 299.26 204.1 305.77 200.36 312.43 196.74 319.24 193.25 325.96 189.55 332.87 185.97 339.98 182.55 347.02 178.94 354.29 175.49 361.79 172.25 369.26 168.87 376.98 165.74 384.98 162.9 392.95 160 401.21 157.46 409.76 155.33" stroke-dasharray="4 2" transform="rotate(16.16, 400, 400)" opacity="0.55"></path><path d="M414.48 166.26C422.73 164.21 431.04 162.67 439.4 161.63 447.76 160.72 456.17 160.37 464.59 160.55 473 160.93 481.41 161.87 489.76 163.37 498.09 165.08 506.32 167.35 514.41 170.14 522.41 173.15 530.21 176.68 537.72 180.69 545.06 184.88 552.04 189.53 558.58 194.59 564.85 199.81 570.59 205.41 575.71 211.35 580.49 217.4 584.58 223.76 587.93 230.38 590.89 237.07 593.09 244.01 594.51 251.14 595.61 258.32 596 265.67 595.72 273.17 595.3 280.69 594.38 288.35 593.07 296.11 591.93 303.87 590.65 311.73 589.36 319.67 588.61 327.61 588.13 335.62 588.04 343.68 588.82 351.74 590.18 359.86 592.19 368 595.2 376.15 598.87 384.32 603.14 392.51 608.26 400.7 613.79 408.9 619.55 417.07 625.68 425.25 631.51 433.21 636.82 440.93 641.9 448.64 646.09 456.11 649.26 463.29 651.74 470.46 652.98 477.34 652.96 483.91 652.05 490.44 649.86 496.64 646.46 502.49 642.24 508.3 636.95 513.73 630.74 518.79 623.95 523.78 616.45 528.39 608.41 532.61 600.09 536.77 591.44 540.55 582.6 543.94 573.74 547.31 564.84 550.32 556 552.99 547.32 555.7 538.77 558.12 530.38 560.27 522.24 562.54 514.28 564.62 506.49 566.53 498.95 568.67 491.55 570.73 484.27 572.74 477.18 575.09 470.16 577.46 463.17 579.9 456.31 582.74 449.43 585.69 442.51 588.77 435.65 592.28 428.71 595.92 421.66 599.67 414.64 603.82 407.49 608.04 400.21 612.25 392.94 616.74 385.51 621.14 377.96 625.35 370.41 629.65 362.9 633.52 355.48 636.89 348.06 640.14 340.73 642.77 333.54 644.72 326.37 646.39 319.34 647.31 312.5 647.47 305.71 647.25 299.13 646.24 292.8 644.46 286.52 642.27 280.52 639.34 274.81 635.71 269.18 631.71 263.86 627.07 258.87 621.84 253.95 616.33 249.36 610.3 245.11 603.83 240.9 597.17 237 590.13 233.43 582.8 229.84 575.35 226.54 567.66 223.5 559.79 220.36 551.87 217.44 543.82 214.72 535.67 211.83 527.53 209.07 519.32 206.45 511.09 203.58 502.88 200.8 494.65 198.1 486.43 195.13 478.24 192.22 470.06 189.4 461.91 186.32 453.79 183.36 445.69 180.54 437.63 177.54 429.58 174.75 421.57 172.23 413.61 169.67 405.66 167.46 397.75 165.69 389.9 164.03 382.04 162.93 374.43 162.43 367.06 162.15 359.69 162.51 352.56 163.51 345.68 164.81 338.8 166.74 332.16 169.29 325.79 172.12 319.41 175.54 313.28 179.49 307.42 183.67 301.55 188.32 295.93 193.39 290.59 198.59 285.22 204.15 280.1 209.99 275.25 215.87 270.34 221.99 265.68 228.29 261.27 234.54 256.78 240.93 252.51 247.43 248.45 253.83 244.29 260.32 240.32 266.88 236.53 273.3 232.6 279.81 228.83 286.39 225.22 292.83 221.43 299.36 217.77 305.99 214.25 312.51 210.53 319.14 206.93 325.91 203.46 332.59 199.8 339.43 196.26 346.43 192.88 353.38 189.33 360.52 185.95 367.86 182.77 375.17 179.47 382.7 176.42 390.47 173.65 398.22 170.83 406.22 168.35 414.47 166.26" stroke-dasharray="0 7" transform="rotate(20.200000000000003, 400, 400)" opacity="0.84"></path><path d="M418.29 177.19C426.21 175.19 434.16 173.67 442.11 172.62 450.07 171.69 458.01 171.28 465.93 171.38 473.83 171.65 481.67 172.46 489.41 173.78 497.11 175.3 504.67 177.34 512.03 179.88 519.29 182.62 526.3 185.85 532.99 189.53 539.52 193.39 545.65 197.69 551.33 202.39 556.76 207.23 561.67 212.45 565.99 217.99 570 223.65 573.38 229.62 576.09 235.84 578.49 242.15 580.22 248.7 581.28 255.45 582.11 262.25 582.34 269.23 582.03 276.35 581.68 283.51 580.93 290.81 579.9 298.21 579.09 305.62 578.21 313.13 577.37 320.72 577.07 328.31 577.03 335.97 577.36 343.67 578.49 351.38 580.13 359.13 582.33 366.9 585.42 374.68 589.06 382.47 593.22 390.26 598.11 398.05 603.34 405.84 608.74 413.59 614.48 421.33 619.92 428.86 624.9 436.14 629.69 443.41 633.69 450.43 636.79 457.18 639.3 463.91 640.71 470.36 640.99 476.5 640.5 482.61 638.84 488.4 636.07 493.86 632.56 499.29 628.05 504.37 622.64 509.09 616.68 513.78 609.99 518.11 602.74 522.08 595.16 526.03 587.19 529.63 578.95 532.89 570.63 536.15 562.19 539.1 553.71 541.75 545.31 544.47 536.97 546.93 528.72 549.17 520.65 551.54 512.71 553.74 504.91 555.81 497.3 558.11 489.82 560.33 482.46 562.52 475.26 565.02 468.14 567.54 461.1 570.11 454.17 573.05 447.25 576.07 440.35 579.19 433.51 582.69 426.64 586.29 419.72 589.95 412.83 593.97 405.87 598.02 398.84 602.04 391.82 606.3 384.71 610.46 377.52 614.42 370.33 618.47 363.24 622.1 356.26 625.27 349.29 628.35 342.45 630.84 335.76 632.72 329.09 634.37 322.58 635.33 316.28 635.59 310.01 635.52 303.96 634.74 298.16 633.24 292.4 631.39 286.91 628.85 281.7 625.66 276.54 622.14 271.67 618 267.11 613.31 262.59 608.36 258.37 602.9 254.46 597.01 250.55 590.92 246.92 584.47 243.58 577.7 240.19 570.8 237.04 563.65 234.12 556.3 231.08 548.89 228.23 541.32 225.55 533.64 222.68 525.94 219.93 518.15 217.29 510.32 214.41 502.49 211.61 494.63 208.88 486.77 205.89 478.92 202.97 471.08 200.13 463.25 197.05 455.45 194.09 447.66 191.27 439.92 188.3 432.19 185.53 424.49 183.02 416.85 180.48 409.21 178.28 401.62 176.5 394.09 174.82 386.56 173.68 379.27 173.1 372.23 172.74 365.17 172.98 358.36 173.83 351.79 174.96 345.21 176.7 338.88 179.02 332.79 181.62 326.69 184.79 320.84 188.47 315.24 192.38 309.61 196.76 304.23 201.56 299.1 206.5 293.93 211.8 289 217.41 284.31 223.07 279.57 228.98 275.04 235.1 270.74 241.19 266.36 247.45 262.17 253.83 258.19 260.14 254.09 266.55 250.17 273.04 246.42 279.43 242.53 285.9 238.78 292.44 235.18 298.87 231.42 305.39 227.78 311.98 224.27 318.48 220.59 325.08 217.02 331.78 213.58 338.41 209.96 345.17 206.48 352.07 203.16 358.92 199.68 365.93 196.37 373.11 193.26 380.25 190.05 387.59 187.07 395.12 184.38 402.63 181.64 410.35 179.23 418.28 177.19" stroke-dasharray="1 2" transform="rotate(24.24, 400, 400)" opacity="0.94"></path><path d="M420.96 188.12C428.54 186.17 436.09 184.67 443.6 183.63 451.11 182.69 458.57 182.23 465.95 182.25 473.3 182.42 480.56 183.09 487.66 184.26 494.72 185.59 501.58 187.41 508.22 189.71 514.75 192.18 521 195.12 526.9 198.48 532.65 202.02 538 205.96 542.89 210.29 547.57 214.76 551.74 219.59 555.36 224.74 558.73 230.01 561.53 235.57 563.72 241.39 565.68 247.29 567.07 253.43 567.88 259.77 568.55 266.17 568.74 272.75 568.49 279.49 568.26 286.26 567.75 293.16 567.03 300.17 566.57 307.21 566.09 314.34 565.68 321.54 565.8 328.76 566.17 336.04 566.88 343.36 568.31 350.69 570.19 358.06 572.54 365.44 575.67 372.83 579.28 380.22 583.3 387.6 587.96 394.99 592.88 402.35 597.93 409.67 603.28 416.99 608.36 424.08 613 430.93 617.5 437.78 621.31 444.37 624.3 450.7 627.58 460.03 628.15 477.23 625.37 485.06 622.51 490.14 618.72 494.91 614.08 499.35 608.91 503.77 603.03 507.87 596.56 511.64 589.75 515.41 582.51 518.87 574.94 522.03 567.23 525.22 559.33 528.14 551.33 530.79 543.33 533.53 535.32 536.05 527.34 538.38 519.47 540.85 511.68 543.18 503.98 545.39 496.43 547.82 488.98 550.2 481.64 552.54 474.44 555.16 467.31 557.8 460.27 560.48 453.33 563.48 446.44 566.55 439.59 569.68 432.8 573.15 426.02 576.68 419.24 580.25 412.49 584.12 405.71 587.99 398.92 591.82 392.14 595.85 385.32 599.77 378.48 603.49 371.63 607.29 364.92 610.69 358.36 613.67 351.81 616.56 345.4 618.92 339.18 620.73 329.95 622.82 312.54 623.43 304.43 621.9 296.61 619.26 282.32 610.47 275.89 604.47 271.71 600.04 267.79 595.13 264.15 589.8 260.49 584.29 257.07 578.4 253.9 572.19 250.66 565.86 247.63 559.27 244.79 552.45 241.82 545.57 239 538.51 236.33 531.31 233.46 524.09 230.7 516.75 228.04 509.36 225.14 501.95 222.31 494.5 219.55 487.03 216.55 479.56 213.61 472.08 210.76 464.62 207.7 457.16 204.75 449.72 201.95 442.31 199.01 434.92 196.27 427.55 193.79 420.24 191.27 412.93 189.09 405.67 187.3 398.47 185.62 391.27 184.44 384.31 183.8 377.57 183.36 370.83 183.49 364.32 184.19 358.05 185.15 351.77 186.7 345.71 188.8 339.89 191.17 334.06 194.07 328.46 197.47 323.09 201.1 317.69 205.19 312.52 209.69 307.58 214.35 302.6 219.37 297.84 224.69 293.29 230.1 288.69 235.77 284.28 241.65 280.08 247.55 275.79 253.62 271.69 259.83 267.76 266 263.73 272.28 259.86 278.66 256.14 284.96 252.29 291.35 248.57 297.81 244.99 304.19 241.26 310.64 237.65 317.17 234.17 323.61 230.53 330.14 227 336.76 223.6 343.32 220.05 349.98 216.63 356.76 213.36 363.49 209.97 370.35 206.74 377.34 203.71 384.31 200.6 391.43 197.71 398.7 195.09 405.95 192.44 413.37 190.1 420.95 188.12" stroke-dasharray="11 2" transform="rotate(28.28, 400, 400)" opacity="0.66"></path><path d="M422.33 199.05C429.53 197.16 436.66 195.69 443.71 194.65 450.76 193.7 457.71 193.2 464.53 193.15 471.33 193.23 477.99 193.78 484.45 194.79 490.87 195.95 497.06 197.56 502.99 199.62 508.83 201.84 514.36 204.49 519.53 207.55 526.89 212.56 539.19 224.65 544 231.62 548.01 239.06 553.21 255.38 554.47 264.16 555.08 270.14 555.3 276.31 555.18 282.63 555.14 288.98 554.89 295.48 554.5 302.08 554.4 308.71 554.31 315.44 554.32 322.24 554.82 329.06 555.56 335.94 556.6 342.86 558.28 349.79 560.35 356.75 562.82 363.72 565.97 370.7 569.5 377.69 573.37 384.65 577.79 391.62 582.41 398.56 587.13 405.45 592.1 412.34 596.81 419.01 601.13 425.45 605.35 431.88 608.94 438.06 611.82 444 615.11 452.74 616.43 468.87 614.36 476.21 612.1 480.99 608.96 485.48 605.04 489.68 600.62 493.87 595.52 497.77 589.83 501.39 583.8 505.01 577.31 508.37 570.45 511.46 563.42 514.59 556.14 517.49 548.69 520.17 541.2 522.93 533.63 525.51 526.03 527.93 518.48 530.49 510.96 532.93 503.49 535.28 496.12 537.83 488.82 540.33 481.61 542.79 474.49 545.52 467.45 548.25 460.5 551 453.63 554.04 446.82 557.12 440.07 560.23 433.38 563.65 426.72 567.09 420.1 570.55 413.51 574.27 406.93 577.96 400.37 581.59 393.83 585.4 387.29 589.08 380.77 592.56 374.25 596.11 367.89 599.29 361.72 602.07 355.54 604.79 349.54 607.02 343.73 608.74 335.13 610.78 319 611.66 311.51 610.44 304.28 608.23 291.07 600.61 285.1 595.3 281.19 591.38 277.52 587 274.09 582.21 270.62 577.24 267.36 571.91 264.32 566.27 261.18 560.5 258.22 554.46 255.43 548.19 252.49 541.84 249.69 535.3 247.01 528.61 244.14 521.89 241.35 515.04 238.66 508.1 235.74 501.15 232.88 494.14 230.1 487.08 227.09 480.03 224.15 472.95 221.3 465.87 218.26 458.8 215.34 451.72 212.56 444.68 209.66 437.64 206.97 430.62 204.52 423.65 202.04 416.69 199.89 409.76 198.11 402.9 196.42 396.04 195.22 389.39 194.52 382.96 194.01 376.53 194.03 370.32 194.59 364.33 195.4 358.33 196.75 352.54 198.62 346.97 200.75 341.39 203.39 336.02 206.5 330.86 209.84 325.68 213.62 320.7 217.81 315.94 222.15 311.13 226.86 306.52 231.88 302.1 236.99 297.63 242.38 293.33 247.99 289.22 253.64 285.03 259.47 281 265.46 277.13 271.44 273.17 277.54 269.34 283.75 265.66 289.91 261.86 296.16 258.18 302.49 254.63 308.76 250.95 315.1 247.38 321.51 243.93 327.86 240.34 334.29 236.87 340.78 233.52 347.23 230.04 353.76 226.7 360.38 223.51 366.96 220.2 373.65 217.07 380.43 214.13 387.19 211.11 394.07 208.32 401.05 205.79 408.03 203.24 415.12 200.98 422.32 199.05" stroke-dasharray="2 8" transform="rotate(32.32, 400, 400)" opacity="0.95"></path><path d="M422.31 209.98C429.11 208.15 435.8 206.72 442.38 205.69 448.94 204.73 455.37 204.2 461.64 204.09 467.89 204.09 473.95 204.53 479.8 205.38 488.37 207.09 504.04 212.79 510.99 216.74 517.41 221.27 527.99 232.27 532.08 238.65 535.5 245.48 539.99 260.54 541.14 268.68 541.78 274.23 542.1 279.96 542.16 285.85 542.35 291.78 542.39 297.84 542.34 304.02 542.59 310.22 542.88 316.53 543.27 322.9 544.11 329.3 545.17 335.76 546.5 342.26 548.39 348.77 550.61 355.32 553.16 361.87 556.29 368.43 559.73 374.99 563.44 381.53 567.61 388.08 571.94 394.59 576.32 401.06 580.93 407.52 585.29 413.78 589.29 419.81 593.21 425.84 596.59 431.63 599.34 437.19 602.6 445.39 604.52 460.52 603.07 467.43 600.06 474.07 589.64 486.04 582.53 491.39 577.26 494.89 571.52 498.17 565.4 501.21 559.08 504.3 552.46 507.2 545.64 509.9 538.73 512.7 531.69 515.34 524.57 517.84 517.45 520.48 510.31 523.02 503.18 525.47 496.1 528.12 489.05 530.71 482.07 533.28 475.15 536.07 468.3 538.86 461.52 541.65 454.8 544.7 448.14 547.77 441.56 550.85 435.02 554.19 428.53 557.54 422.1 560.87 415.7 564.42 409.34 567.93 403.03 571.35 396.73 574.94 390.47 578.38 384.26 581.63 378.05 584.94 372.02 587.9 366.2 590.49 357.55 594.08 341.26 598.74 333.64 599.69 326.23 599.82 312.55 597.05 306.28 594.18 300.22 590.48 289.19 580.43 284.18 574.21 280.85 569.78 277.7 564.99 274.74 559.89 271.67 554.67 268.76 549.18 265.98 543.45 263.06 537.64 260.26 531.64 257.55 525.47 254.67 519.26 251.86 512.91 249.13 506.46 246.19 499.98 243.32 493.43 240.52 486.82 237.51 480.21 234.58 473.55 231.74 466.88 228.74 460.21 225.85 453.53 223.11 446.87 220.27 440.2 217.62 433.56 215.22 426.95 212.8 420.34 210.68 413.76 208.92 407.24 207.24 400.71 206.02 394.39 205.27 388.27 204.66 379.19 206.27 362.02 208.51 353.93 211.58 346.01 220.35 331.1 225.94 324.1 229.96 319.45 234.33 314.98 239.01 310.69 243.8 306.34 248.86 302.16 254.16 298.13 259.52 294.03 265.07 290.08 270.78 286.27 276.51 282.37 282.38 278.61 288.36 274.97 294.33 271.22 300.39 267.6 306.52 264.09 312.63 260.46 318.81 256.94 325.04 253.55 331.24 250.03 337.51 246.62 343.84 243.35 350.13 239.95 356.48 236.69 362.9 233.59 369.3 230.38 375.77 227.35 382.3 224.51 388.83 221.6 395.43 218.91 402.1 216.48 408.76 214.02 415.5 211.84 422.3 209.98" stroke-dasharray="3 10" transform="rotate(36.36, 400, 400)" opacity="0.55"></path><path d="M420.9 220.91C427.28 219.15 433.52 217.76 439.61 216.74 445.69 215.79 451.61 215.23 457.34 215.06 468.72 215.04 479.24 216.63 488.65 219.73 497.78 223.34 505.61 228.44 511.95 234.85 517.87 241.71 522.25 249.77 525.05 258.81 527.69 268.17 529.09 278.38 529.53 289.21 530.6 300.24 531.46 311.78 532.53 323.63 535.26 335.57 538.89 347.76 543.55 360 546.64 366.13 549.97 372.26 553.5 378.38 557.42 384.5 561.46 390.59 565.51 396.63 569.77 402.68 573.79 408.53 577.47 414.17 581.11 419.8 584.26 425.23 586.87 430.43 591.23 440.82 592.81 450.31 591.51 458.85 588.51 467.38 582.73 475.02 574.63 481.74 565.28 488.58 554.22 494.66 542.04 500.04 529.41 505.78 516.19 511.06 502.79 515.98 489.44 521.57 476.12 527.05 463.04 532.45 450.12 538.72 437.41 545.01 425 551.19 418.82 554.57 412.71 557.89 406.66 561.11 400.62 564.46 394.64 567.68 388.73 570.7 382.81 573.77 377.11 576.52 371.6 578.92 366.09 581.29 360.79 583.24 355.69 584.78 345.47 587.49 336.07 588.3 327.56 587.2 318.97 585.35 311.21 581.57 304.31 576.06 297.2 569.85 290.8 562.08 285.07 553.05 278.91 543.57 273.2 533.07 267.91 521.84 261.94 510.4 256.22 498.42 250.78 486.14 244.65 473.82 238.85 461.29 233.59 448.75 230.82 442.49 228.23 436.22 225.89 429.98 223.53 423.74 221.46 417.52 219.72 411.35 218.07 405.17 216.84 399.17 216.05 393.36 215.41 387.55 215.25 381.91 215.55 376.47 216.75 365.54 219.87 355.32 224.74 345.84 230.39 336.24 237.62 327.28 246.13 319 255.12 310.49 265.12 302.53 275.87 295.15 286.76 287.42 298.19 280.14 309.98 273.35 321.71 266.14 333.75 259.34 345.96 253.07 358.1 246.38 370.46 240.25 382.97 234.85 389.22 232.06 395.51 229.49 401.83 227.15 408.15 224.79 414.51 222.7 420.89 220.91" stroke-dasharray="3 7" transform="rotate(40.400000000000006, 400, 400)" opacity="0.64"></path><path d="M418.2 231.84C430.08 228.51 441.31 226.59 451.75 226.08 462.1 225.91 471.54 227.23 479.88 229.94 487.99 233.09 494.88 237.62 500.41 243.37 505.67 249.52 509.59 256.8 512.2 265.02 514.8 273.53 516.43 282.85 517.33 292.8 518.92 302.92 520.4 313.56 522.11 324.52 525.31 335.57 529.24 346.87 533.99 358.23 540.41 369.64 547.47 381.06 554.71 392.31 562.64 403.57 569.37 414.11 574.41 423.85 578.64 433.57 580.43 442.49 579.71 450.57 577.56 458.67 572.92 465.98 566.12 472.5 558.18 479.17 548.58 485.18 537.78 490.6 526.46 496.36 514.43 501.74 502.07 506.79 489.65 512.44 477.13 517.96 464.74 523.37 452.45 529.51 440.31 535.61 428.46 541.52 416.68 548.06 405.12 554.24 393.9 559.77 382.67 565.47 372.25 569.87 362.66 572.81 353.02 575.4 344.18 576.28 336.15 575.44 328.02 573.99 320.65 570.79 314.02 566 307.16 560.61 300.91 553.78 295.23 545.74 289.12 537.29 283.4 527.84 278.04 517.65 272.07 507.25 266.34 496.28 260.89 484.95 254.85 473.56 249.15 461.92 244 450.21 238.57 438.5 233.97 426.75 230.53 415.1 227.38 403.45 225.9 392.43 226.1 382.09 227 371.71 229.68 361.96 233.99 352.86 239.01 343.65 245.53 335.01 253.29 326.97 261.53 318.72 270.79 310.97 280.8 303.74 291.01 296.2 301.8 289.07 312.95 282.42 324.13 275.39 335.62 268.78 347.25 262.68 358.87 256.24 370.66 250.34 382.51 245.16 394.36 239.8 406.3 235.29 418.18 231.84" stroke-dasharray="10 2" transform="rotate(44.44, 400, 400)" opacity="0.63"></path><path d="M414.36 242.77C425.35 239.58 435.64 237.71 445.1 237.12 454.48 236.83 462.95 237.9 470.36 240.25 477.62 242.97 483.74 246.96 488.66 252.08 493.43 257.55 497.07 264.07 499.63 271.47 502.31 279.14 504.24 287.6 505.62 296.65 507.7 305.87 509.74 315.6 512 325.66 515.56 335.8 519.71 346.21 524.48 356.7 530.63 367.22 537.24 377.79 543.9 388.24 551.15 398.68 557.31 408.48 561.97 417.58 566.02 426.66 567.95 435.05 567.7 442.71 566.27 450.39 562.62 457.41 557.02 463.75 550.4 470.23 542.18 476.18 532.76 481.61 522.8 487.36 512.03 492.78 500.81 497.91 489.45 503.55 477.87 509.05 466.31 514.4 454.79 520.37 443.36 526.23 432.16 531.85 421 537.99 410.06 543.73 399.44 548.84 388.82 554.09 378.98 558.13 369.93 560.86 360.82 563.31 352.45 564.22 344.83 563.61 337.08 562.49 330 559.8 323.58 555.67 316.91 551.04 310.76 545.07 305.11 537.97 299.04 530.5 293.31 522.07 287.91 512.89 281.96 503.51 276.25 493.54 270.83 483.17 264.91 472.74 259.35 462 254.35 451.14 249.12 440.27 244.68 429.3 241.33 418.38 238.25 407.45 236.71 397.07 236.72 387.28 237.34 377.45 239.59 368.16 243.34 359.45 247.75 350.64 253.55 342.33 260.54 334.55 268 326.59 276.46 319.06 285.66 312.01 295.11 304.69 305.15 297.76 315.58 291.28 326.08 284.48 336.9 278.08 347.86 272.19 358.84 266.02 369.96 260.38 381.08 255.43 392.22 250.34 403.36 246.05 414.36 242.77" stroke-dasharray="0 2" transform="rotate(48.48, 400, 400)" opacity="0.41"></path><path d="M409.62 253.7C419.72 250.68 429.1 248.86 437.65 248.22 446.14 247.82 453.76 248.66 460.39 250.67 466.92 253 472.44 256.48 476.93 260.99 481.36 265.81 484.86 271.6 487.48 278.22 490.31 285.07 492.57 292.67 494.42 300.84 496.95 309.16 499.48 317.99 502.19 327.14 506.01 336.38 510.28 345.89 515 355.51 520.86 365.16 527 374.88 533.1 384.53 539.69 394.17 545.28 403.26 549.56 411.74 553.38 420.21 555.38 428.09 555.49 435.34 554.66 442.63 551.88 449.35 547.33 455.51 541.92 461.81 535.01 467.66 526.91 473.06 518.3 478.77 508.82 484.18 498.8 489.31 488.59 494.89 478.06 500.31 467.45 505.55 456.82 511.3 446.19 516.89 435.72 522.19 425.29 527.91 415.01 533.22 405.03 537.91 395.03 542.72 385.75 546.41 377.2 548.93 368.58 551.22 360.64 552.14 353.36 551.71 345.95 550.87 339.11 548.63 332.85 545.09 326.34 541.14 320.28 535.96 314.64 529.73 308.62 523.19 302.9 515.72 297.48 507.52 291.59 499.15 285.94 490.16 280.6 480.75 274.84 471.27 269.46 461.45 264.62 451.44 259.62 441.43 255.38 431.26 252.14 421.08 249.15 410.9 247.57 401.16 247.39 391.93 247.75 382.67 249.6 373.86 252.82 365.56 256.62 357.17 261.72 349.21 267.93 341.71 274.59 334.06 282.2 326.8 290.55 319.96 299.17 312.9 308.38 306.2 317.99 299.93 327.72 293.39 337.77 287.25 347.96 281.6 358.19 275.72 368.55 270.36 378.87 265.67 389.22 260.86 399.53 256.81 409.62 253.7" stroke-dasharray="6 9" transform="rotate(52.52, 400, 400)" opacity="0.38"></path><path d="M404.29 264.63C413.5 261.78 422 260.02 429.73 259.34 437.42 258.86 444.28 259.5 450.28 261.2 456.21 263.16 461.28 266.16 465.47 270.11 469.68 274.31 473.13 279.41 475.9 285.27 478.91 291.33 481.49 298.09 483.78 305.4 486.68 312.85 489.6 320.78 492.65 329.05 496.64 337.39 500.96 346.01 505.55 354.77 511.08 363.56 516.75 372.44 522.29 381.3 528.25 390.16 533.29 398.56 537.18 406.43 540.74 414.31 542.74 421.7 543.12 428.55 542.77 435.45 540.72 441.88 537.1 447.84 532.77 453.93 527.05 459.64 520.21 464.98 512.89 470.58 504.69 475.92 495.89 481 486.88 486.45 477.47 491.73 467.86 496.79 458.22 502.28 448.48 507.56 438.83 512.52 429.18 517.82 419.63 522.7 410.29 526.97 400.96 531.35 392.24 534.71 384.16 537.01 376.03 539.13 368.47 540.05 361.5 539.75 354.4 539.14 347.79 537.29 341.66 534.28 335.31 530.93 329.34 526.48 323.73 521.06 317.79 515.37 312.11 508.81 306.73 501.55 300.94 494.13 295.4 486.11 290.19 477.64 284.63 469.1 279.46 460.19 274.83 451.05 270.08 441.9 266.05 432.55 262.95 423.12 260.06 413.69 258.46 404.62 258.13 395.97 258.26 387.29 259.73 378.99 262.44 371.12 265.66 363.17 270.07 355.59 275.51 348.41 281.36 341.11 288.11 334.14 295.57 327.57 303.31 320.81 311.63 314.39 320.36 308.36 329.23 302.13 338.42 296.28 347.75 290.9 357.16 285.35 366.68 280.29 376.15 275.87 385.65 271.36 395.09 267.57 404.29 264.63" stroke-dasharray="3 2" transform="rotate(56.56, 400, 400)" opacity="0.90"></path><path d="M398.7 275.56C407.02 272.89 414.7 271.21 421.68 270.5 431.74 270.19 448.13 274.74 454.49 279.44 458.56 283.07 462.03 287.5 464.96 292.65 468.16 297.96 471.04 303.92 473.69 310.4 476.89 316.99 480.1 324.06 483.39 331.45 487.44 338.91 491.71 346.66 496.13 354.58 501.29 362.51 506.48 370.58 511.48 378.66 516.83 386.75 521.34 394.46 524.84 401.75 528.11 409.05 530.06 415.94 530.62 422.39 530.63 428.89 529.18 435.02 526.36 440.74 522.97 446.6 518.32 452.13 512.63 457.35 506.52 462.79 499.56 467.99 491.96 472.95 484.15 478.21 475.87 483.29 467.33 488.13 458.72 493.3 449.94 498.25 441.15 502.85 432.35 507.72 423.57 512.18 414.92 516.04 406.27 520 398.13 523.03 390.53 525.1 382.89 527.05 375.72 527.93 369.04 527.75 362.25 527.33 355.87 525.81 349.89 523.26 343.72 520.45 337.86 516.64 332.32 511.96 326.5 507.06 320.93 501.35 315.63 494.98 310.01 488.47 304.63 481.37 299.59 473.81 294.29 466.19 289.37 458.18 284.98 449.91 280.5 441.62 276.7 433.09 273.75 424.43 271 415.77 269.4 407.39 268.94 399.34 268.86 391.27 269.99 383.5 272.22 376.09 274.89 368.62 278.64 361.45 283.32 354.64 288.37 347.72 294.26 341.1 300.83 334.83 307.66 328.42 315.05 322.32 322.85 316.59 330.8 310.7 339.06 305.18 347.5 300.11 356 294.9 364.62 290.17 373.21 286.04 381.82 281.84 390.37 278.31 398.7 275.56" stroke-dasharray="2 8" transform="rotate(60.599999999999994, 400, 400)" opacity="0.99"></path><path d="M393.18 286.5C400.65 284.01 407.56 282.42 413.85 281.71 422.96 281.28 438.1 284.99 444.2 288.99 449.92 293.99 459.68 307.57 464.16 315.85 467.56 321.63 470.95 327.85 474.37 334.41 478.4 341.02 482.55 347.92 486.73 355 491.5 362.11 496.21 369.37 500.68 376.7 505.43 384.03 509.43 391.07 512.55 397.77 515.51 404.49 517.35 410.88 518.02 416.92 518.29 423.01 517.31 428.8 515.17 434.25 512.57 439.82 508.86 445.13 504.21 450.16 499.21 455.38 493.39 460.38 486.94 465.15 480.29 470.16 473.14 474.98 465.67 479.54 458.11 484.37 450.32 488.95 442.43 493.18 434.53 497.61 426.56 501.64 418.62 505.11 410.69 508.66 403.16 511.37 396.05 513.22 388.91 514.99 382.15 515.82 375.79 515.72 369.33 515.44 363.2 514.2 357.41 512.06 351.46 509.71 345.77 506.49 340.36 502.48 334.72 498.29 329.31 493.37 324.16 487.83 318.77 482.17 313.63 475.95 308.81 469.27 303.81 462.54 299.18 455.42 295.06 447.99 290.88 440.56 287.33 432.86 284.56 424.98 281.95 417.1 280.37 409.42 279.81 401.99 279.56 394.56 280.38 387.35 282.18 380.44 284.33 373.48 287.45 366.78 291.41 360.37 295.69 353.89 300.74 347.66 306.41 341.75 312.32 335.73 318.78 329.99 325.62 324.61 332.62 319.11 339.93 313.94 347.42 309.21 354.98 304.38 362.67 300 370.35 296.17 378.05 292.3 385.71 289.04 393.18 286.5" stroke-dasharray="7 3" transform="rotate(64.64, 400, 400)" opacity="0.66"></path><path d="M388.09 297.43C397.81 294.4 414.82 292.43 422.06 293.45 428.86 295.4 440.39 302.99 445.36 308.45 448.81 312.38 452.07 316.86 455.18 321.79 458.67 326.79 462.14 332.21 465.58 337.96 469.5 343.75 473.44 349.82 477.35 356.11 481.69 362.4 485.92 368.88 489.88 375.47 494.05 382.05 497.55 388.42 500.29 394.53 503.78 403.6 505.47 420.5 503.56 428.35 501.62 433.59 498.72 438.61 494.98 443.4 490.96 448.33 486.18 453.06 480.8 457.58 475.25 462.27 469.18 466.78 462.75 471.03 456.24 475.47 449.44 479.66 442.47 483.5 435.48 487.5 428.35 491.1 421.17 494.18 413.99 497.33 407.09 499.72 400.51 501.36 393.92 502.94 387.6 503.7 381.6 503.66 375.52 503.48 369.7 502.48 364.15 500.69 358.48 498.75 353.02 496.05 347.81 492.64 342.43 489.1 337.26 484.9 332.34 480.12 327.24 475.25 322.38 469.86 317.85 464.03 313.19 458.15 308.89 451.88 305.07 445.3 301.22 438.71 297.94 431.83 295.37 424.74 292.92 417.65 291.39 410.69 290.76 403.92 290.37 397.15 290.91 390.54 292.31 384.17 294 377.77 296.53 371.57 299.82 365.62 303.36 359.61 307.6 353.83 312.42 348.33 317.43 342.75 322.95 337.42 328.85 332.43 334.88 327.35 341.23 322.58 347.77 318.22 354.37 313.79 361.12 309.77 367.88 306.27 374.67 302.74 381.45 299.76 388.09 297.43" stroke-dasharray="5 10" transform="rotate(68.68, 400, 400)" opacity="0.17"></path><path d="M383.73 308.36C395.41 304.26 405.65 303.05 414.24 304.41 422.98 306.16 430.46 310.47 436.78 316.88 443.91 323.6 450.64 332.21 456.99 342.13 464.77 352.16 472.39 363.3 479.07 375 486.42 386.69 491.06 397.84 492.63 408.08 493.44 418.47 490.75 428.2 485.02 437.03 478.47 446.3 469.35 454.95 458.54 462.57 447.48 470.76 435.19 477.91 422.39 483.25 409.59 488.78 397.47 491.53 386.36 491.59 375.04 491.29 364.38 488.13 354.66 482.49 344.47 476.46 334.97 468.15 326.71 458.12 318.11 447.95 310.97 436.31 306.17 423.73 301.81 411.14 300.74 398.83 302.64 387.28 305.42 375.64 311.08 364.59 318.91 354.57 327.39 344.33 337.62 335 348.76 327.14 360.13 319.09 372.05 312.59 383.73 308.36" stroke-dasharray="5 5" transform="rotate(72.72, 400, 400)" opacity="0.78"></path><path d="M380.39 319.29C390.52 315.62 399.63 314.45 407.53 315.49 415.58 316.81 422.74 320.33 429.01 325.67 435.93 331.24 442.49 338.48 448.59 346.94 455.71 355.47 462.5 365.08 468.27 375.32 474.54 385.55 478.49 395.46 479.9 404.71 480.84 414.06 478.9 422.93 474.41 431.03 469.35 439.45 462.02 447.3 453.05 454.16 443.88 461.43 433.42 467.7 422.23 472.32 411.03 477.08 400.18 479.45 390.02 479.51 379.74 479.35 369.93 476.77 360.92 472.06 351.6 467.09 342.92 460.12 335.4 451.6 327.69 442.97 321.3 432.95 316.98 421.97 313 410.98 311.82 400.11 313.17 389.8 315.17 379.43 319.62 369.52 325.97 360.51 332.82 351.35 341.25 343 350.59 335.97 360.11 328.83 370.26 323.06 380.39 319.29" stroke-dasharray="8 8" transform="rotate(76.76, 400, 400)" opacity="0.74"></path><path d="M378.27 330.22C386.91 327.01 394.9 325.9 402.06 326.68 409.33 327.63 416.02 330.44 422.04 334.81 428.53 339.32 434.69 345.3 440.34 352.37 446.68 359.49 452.58 367.62 457.46 376.41 462.7 385.2 465.98 393.84 467.18 401.99 468.12 410.23 466.75 418.12 463.28 425.36 459.44 432.83 453.66 439.76 446.38 445.79 438.94 452.09 430.24 457.47 420.68 461.39 411.11 465.41 401.63 467.39 392.6 467.45 383.5 467.37 374.72 465.28 366.61 461.42 358.31 457.39 350.6 451.64 343.94 444.53 337.18 437.35 331.6 428.9 327.78 419.52 324.23 410.14 323.02 400.74 323.91 391.75 325.24 382.74 328.63 374.07 333.64 366.15 339 358.15 345.76 350.85 353.4 344.71 361.18 338.52 369.63 333.51 378.27 330.22" stroke-dasharray="4 5" transform="rotate(80.80000000000001, 400, 400)" opacity="0.30"></path><path d="M377.5 341.15C384.68 338.42 391.53 337.42 397.84 337.97 404.24 338.62 410.28 340.81 415.81 344.29 421.65 347.85 427.2 352.65 432.22 358.41 437.68 364.2 442.65 370.89 446.65 378.24 450.91 385.59 453.53 392.9 454.51 399.89 455.35 406.93 454.38 413.73 451.74 419.98 448.88 426.38 444.42 432.32 438.66 437.45 432.79 442.75 425.76 447.23 417.84 450.46 409.92 453.75 401.91 455.37 394.16 455.41 386.39 455.37 378.81 453.71 371.77 450.6 364.65 447.39 358.03 442.78 352.32 437 346.59 431.16 341.86 424.23 338.59 416.45 335.51 408.67 334.33 400.8 334.85 393.21 335.66 385.61 338.13 378.26 341.95 371.53 345.99 364.76 351.24 358.58 357.31 353.38 363.47 348.16 370.31 343.94 377.5 341.15" stroke-dasharray="4 2" transform="rotate(84.84, 400, 400)" opacity="0.34"></path><path d="M378.12 352.08C389.64 347.67 400.83 348.78 410.25 354.07 420.42 359.55 429.75 368.95 435.85 380.76 442.56 392.56 443.77 404.61 439.92 414.85 435.64 425.42 426.45 434.5 413.9 439.53 401.34 444.73 388.03 444.46 376.47 439.67 364.82 434.67 354.83 425.26 349.4 412.88 344.46 400.49 345.46 387.59 350.91 376.68 356.86 365.71 366.6 356.64 378.12 352.08" stroke-dasharray="2 1" transform="rotate(88.88, 400, 400)" opacity="0.50"></path><path d="M380.11 363.01C388.79 359.62 397.64 360.33 405.26 364.16 413.27 368.07 420.49 374.98 425.04 383.88 429.92 392.77 430.76 402.01 427.96 409.92 425 417.98 418.4 424.86 409.09 428.6 399.78 432.43 389.66 432.21 380.8 428.67 371.96 425.04 364.37 418.12 360.2 408.89 356.32 399.65 356.76 389.92 360.5 381.64 364.48 373.35 371.43 366.49 380.11 363.01" stroke-dasharray="2 11" transform="rotate(92.92, 400, 400)" opacity="0.92"></path><path d="M383.33 373.94C395 369.38 408.42 375.57 414.23 387.5 420.63 399.42 415.97 412.79 403.72 417.67 391.45 422.71 376.76 416.86 371.01 404.63 365.78 392.38 371.66 378.66 383.33 373.94" stroke-dasharray="9 8" transform="rotate(96.96, 400, 400)" opacity="0.08"></path></g></svg>